M48
;Layer_Color=6321
;FILE_FORMAT=2:5
INCH,LZ
;TYPE=PLATED
T1F00S00C0.02800
T2F00S00C0.03937
T3F00S00C0.04000
T4F00S00C0.04331
T5F00S00C0.05000
T6F00S00C0.09449
T7F00S00C0.10827
%
T01
X04545Y04395
X04685Y044
T02
X0286642Y0432205
X0304358
X031Y04125
X0304358Y0457795
X0286642
T03
X032Y04125
X033
X034
X035
X036
X037
X038
X039
X04
X041
X042
X043
X044
X045
Y04725
X044
X043
X042
X041
X04
X039
X038
X037
X036
X035
X034
X033
X032
X031
T04
X0481Y0432953
X0493126Y0426358
Y0458642
X0481Y0452047
T05
X02735Y043375
Y044375
Y045375
T06
X02155Y04025
X04855
Y0485
X0215
T07
X02435Y0420128
M30
