G04 Layer_Physical_Order=1*
G04 Layer_Color=25308*
%FSLAX25Y25*%
%MOIN*%
G70*
G01*
G75*
%ADD10C,0.01000*%
%ADD11R,0.07874X0.02756*%
%ADD12R,0.06299X0.02362*%
G04:AMPARAMS|DCode=13|XSize=78.74mil|YSize=133.86mil|CornerRadius=0mil|HoleSize=0mil|Usage=FLASHONLY|Rotation=90.000|XOffset=0mil|YOffset=0mil|HoleType=Round|Shape=Octagon|*
%AMOCTAGOND13*
4,1,8,-0.06693,-0.01969,-0.06693,0.01969,-0.04724,0.03937,0.04724,0.03937,0.06693,0.01969,0.06693,-0.01969,0.04724,-0.03937,-0.04724,-0.03937,-0.06693,-0.01969,0.0*
%
%ADD13OCTAGOND13*%

%ADD14R,0.05709X0.04134*%
%ADD15R,0.04921X0.06102*%
%ADD16R,0.03150X0.03150*%
G04:AMPARAMS|DCode=17|XSize=47.24mil|YSize=43.31mil|CornerRadius=0mil|HoleSize=0mil|Usage=FLASHONLY|Rotation=180.000|XOffset=0mil|YOffset=0mil|HoleType=Round|Shape=Octagon|*
%AMOCTAGOND17*
4,1,8,-0.02362,0.01083,-0.02362,-0.01083,-0.01280,-0.02165,0.01280,-0.02165,0.02362,-0.01083,0.02362,0.01083,0.01280,0.02165,-0.01280,0.02165,-0.02362,0.01083,0.0*
%
%ADD17OCTAGOND17*%

%ADD18R,0.04331X0.05315*%
%ADD19C,0.13000*%
%ADD20R,0.06890X0.01575*%
%ADD21R,0.05000X0.05000*%
%ADD22C,0.12795*%
%ADD23C,0.06500*%
%ADD24R,0.05906X0.05906*%
%ADD25C,0.05906*%
%ADD26O,0.06000X0.10000*%
%ADD27R,0.06000X0.10000*%
%ADD28C,0.05000*%
D10*
X472500Y453000D02*
G03*
X462949Y462551I-9551J0D01*
G01*
X472500Y445000D02*
G03*
X475000Y442500I2500J0D01*
G01*
X451913Y450500D02*
X462543D01*
X296000Y466153D02*
X304358Y457795D01*
X296000Y466153D02*
Y478894D01*
X287228Y448500D02*
X294000Y455271D01*
X279500Y448500D02*
X287228D01*
X274250Y453750D02*
X279500Y448500D01*
X273500Y453750D02*
X274250D01*
X267000Y440250D02*
X273500Y433750D01*
X267000Y440250D02*
Y455551D01*
X300449Y489000D01*
X335000Y448087D02*
X339500Y443586D01*
Y440650D02*
X342441Y437709D01*
X339500Y440650D02*
Y443586D01*
X323041Y448087D02*
X330000Y441128D01*
Y437300D02*
X333099Y434201D01*
X330000Y437300D02*
Y441128D01*
X315000Y447860D02*
X323041Y439819D01*
X328500Y446319D02*
X335000Y439819D01*
X328500Y446319D02*
Y450000D01*
X325000Y453500D02*
X328500Y450000D01*
X325000Y453500D02*
Y476000D01*
X357500Y426858D02*
X369500D01*
X325000Y476000D02*
X330000Y481000D01*
X315000Y447860D02*
Y475864D01*
X322136Y483000D01*
X296000Y478894D02*
X302106Y485000D01*
X294000Y455271D02*
Y479723D01*
X301277Y487000D01*
X350000Y466142D02*
Y472500D01*
Y466142D02*
X357000Y459142D01*
X360000Y468642D02*
Y472500D01*
Y468642D02*
X369500Y459142D01*
X465500Y431244D02*
Y435500D01*
Y431244D02*
X466256Y432000D01*
X462543Y438457D02*
Y450500D01*
Y438457D02*
X465500Y435500D01*
Y424500D02*
Y431244D01*
X462000Y421000D02*
X465500Y424500D01*
X437441Y439941D02*
X454059D01*
X454500Y439500D01*
X468500Y440000D02*
X468559Y439941D01*
X480000D01*
X340000Y412500D02*
X348500Y421000D01*
X462000D01*
X334358Y426858D02*
X357500D01*
X320000Y412500D02*
X334358Y426858D01*
X450383Y444594D02*
X451126D01*
X442256Y452721D02*
X450383Y444594D01*
X442256Y452721D02*
Y458000D01*
X425814Y452721D02*
X442256D01*
X422035Y456500D02*
X425814Y452721D01*
X413965Y456500D02*
X420016Y462551D01*
X418953Y433449D02*
X430949D01*
X414402Y438000D02*
X418953Y433449D01*
X413965Y438000D02*
X414402D01*
X422035D02*
Y456500D01*
X373901D02*
X413965D01*
X372976Y455575D02*
X373901Y456500D01*
X360717Y455575D02*
X372976D01*
X357000Y451858D02*
X360717Y455575D01*
X369500Y451858D02*
X400106D01*
X413965Y438000D01*
X357441Y434201D02*
X357500Y434142D01*
X333099Y434201D02*
X357441D01*
X364543Y434142D02*
X369500D01*
X360976Y437709D02*
X364543Y434142D01*
X342441Y437709D02*
X360976D01*
X330000Y481000D02*
X385500D01*
X392000Y474500D01*
X322136Y483000D02*
X393500D01*
X402000Y474500D01*
X302106Y485000D02*
X403000D01*
X412000Y476000D01*
X301277Y487000D02*
X409500D01*
X422000Y474500D01*
X300449Y489000D02*
X417500D01*
X432000Y474500D01*
X466256Y432000D02*
X471209Y436953D01*
X482071D01*
X430949Y433449D02*
X437441Y439941D01*
X420016Y462551D02*
X462949D01*
X472500Y445000D02*
Y453000D01*
X475000Y442500D02*
X480000D01*
D11*
X451913Y450500D02*
D03*
D12*
X451126Y444594D02*
D03*
Y456406D02*
D03*
D13*
X462543Y450500D02*
D03*
D14*
X369500Y426858D02*
D03*
Y434142D02*
D03*
X357500Y426858D02*
D03*
Y434142D02*
D03*
X357000Y459142D02*
D03*
Y451858D02*
D03*
X369500Y459142D02*
D03*
Y451858D02*
D03*
D15*
X413965Y438000D02*
D03*
X422035D02*
D03*
X413965Y456500D02*
D03*
X422035D02*
D03*
D16*
X323041Y440803D02*
D03*
Y447102D02*
D03*
X335000Y440803D02*
D03*
Y447102D02*
D03*
D17*
X323041Y439819D02*
D03*
Y448087D02*
D03*
X335000Y439819D02*
D03*
Y448087D02*
D03*
D18*
X442256Y458000D02*
D03*
X466256Y432000D02*
D03*
X436744Y458000D02*
D03*
X460744Y432000D02*
D03*
D19*
X485500Y485000D02*
D03*
Y402500D02*
D03*
X215500D02*
D03*
X215000Y485000D02*
D03*
D20*
X481000Y437382D02*
D03*
Y439941D02*
D03*
Y442500D02*
D03*
D21*
X493126Y458642D02*
D03*
Y426358D02*
D03*
X481000Y432953D02*
D03*
Y452047D02*
D03*
D22*
X243500Y467372D02*
D03*
Y420128D02*
D03*
D23*
X273500Y453750D02*
D03*
Y433750D02*
D03*
Y443750D02*
D03*
D24*
X286642Y432205D02*
D03*
D25*
Y457795D02*
D03*
X304358D02*
D03*
Y432205D02*
D03*
D26*
X320000Y412500D02*
D03*
X330000D02*
D03*
X340000D02*
D03*
X350000D02*
D03*
X360000D02*
D03*
X370000D02*
D03*
X380000D02*
D03*
X390000D02*
D03*
X400000D02*
D03*
X410000D02*
D03*
X420000D02*
D03*
X430000D02*
D03*
X440000D02*
D03*
X450000D02*
D03*
Y472500D02*
D03*
X440000D02*
D03*
X430000D02*
D03*
X420000D02*
D03*
X410000D02*
D03*
X400000D02*
D03*
X390000D02*
D03*
X380000D02*
D03*
X370000D02*
D03*
X360000D02*
D03*
X350000D02*
D03*
X340000D02*
D03*
X310000Y412500D02*
D03*
X330000Y472500D02*
D03*
X320000D02*
D03*
D27*
X310000D02*
D03*
D28*
X454500Y439500D02*
D03*
X468500Y440000D02*
D03*
M02*
