G04 Layer_Physical_Order=2*
G04 Layer_Color=11436288*
%FSLAX25Y25*%
%MOIN*%
G70*
G01*
G75*
%ADD18C,0.01000*%
%ADD19C,0.07000*%
%ADD20C,0.06000*%
%ADD21C,0.05906*%
%ADD22R,0.05906X0.05906*%
%ADD23C,0.13000*%
%ADD24R,0.06000X0.10000*%
%ADD25O,0.06000X0.10000*%
%ADD26C,0.07874*%
%ADD27C,0.02500*%
%ADD28C,0.05000*%
G36*
X510000Y560000D02*
Y410000D01*
X500000Y400000D01*
X210000D01*
X200000Y410000D01*
Y560000D01*
X210000Y570000D01*
X500000D01*
X510000Y560000D01*
D02*
G37*
%LPC*%
G36*
X493100Y481277D02*
X492722Y481201D01*
X491978Y480704D01*
X491481Y479960D01*
X491405Y479582D01*
X493100D01*
Y481277D01*
D02*
G37*
G36*
X495795Y478582D02*
X494100D01*
Y476887D01*
X494478Y476962D01*
X495222Y477460D01*
X495719Y478204D01*
X495795Y478582D01*
D02*
G37*
G36*
X411358Y483106D02*
X410945Y483052D01*
X410093Y482699D01*
X409362Y482138D01*
X408801Y481407D01*
X408448Y480555D01*
X408394Y480142D01*
X411358D01*
Y483106D01*
D02*
G37*
G36*
X206000Y496009D02*
X204962Y495873D01*
X203995Y495472D01*
X203165Y494835D01*
X202528Y494005D01*
X202127Y493038D01*
X201991Y492000D01*
Y488000D01*
X202127Y486962D01*
X202528Y485995D01*
X203165Y485165D01*
X203995Y484528D01*
X204962Y484127D01*
X206000Y483991D01*
X207038Y484127D01*
X208005Y484528D01*
X208835Y485165D01*
X209472Y485995D01*
X209873Y486962D01*
X210009Y488000D01*
Y492000D01*
X209873Y493038D01*
X209472Y494005D01*
X208835Y494835D01*
X208005Y495472D01*
X207038Y495873D01*
X206000Y496009D01*
D02*
G37*
G36*
X412358Y483106D02*
Y480142D01*
X415323D01*
X415268Y480555D01*
X414915Y481407D01*
X414354Y482138D01*
X413623Y482699D01*
X412772Y483052D01*
X412358Y483106D01*
D02*
G37*
G36*
X493100Y478582D02*
X491405D01*
X491481Y478204D01*
X491978Y477460D01*
X492722Y476962D01*
X493100Y476887D01*
Y478582D01*
D02*
G37*
G36*
X441035Y483540D02*
X440128Y483421D01*
X439283Y483071D01*
X438557Y482514D01*
X438000Y481788D01*
X437650Y480943D01*
X437530Y480035D01*
X437650Y479128D01*
X438000Y478283D01*
X438557Y477557D01*
X439283Y477000D01*
X439532Y476897D01*
Y466138D01*
X439283Y466035D01*
X438557Y465478D01*
X438000Y464752D01*
X437650Y463907D01*
X437530Y463000D01*
X437650Y462093D01*
X438000Y461247D01*
X438557Y460522D01*
X439283Y459965D01*
X440128Y459614D01*
X441035Y459495D01*
X441943Y459614D01*
X442788Y459965D01*
X443514Y460522D01*
X444071Y461247D01*
X444421Y462093D01*
X444540Y463000D01*
X444421Y463907D01*
X444071Y464752D01*
X443514Y465478D01*
X442788Y466035D01*
X442539Y466138D01*
Y476897D01*
X442788Y477000D01*
X443514Y477557D01*
X444071Y478283D01*
X444421Y479128D01*
X444540Y480035D01*
X444421Y480943D01*
X444071Y481788D01*
X443514Y482514D01*
X442788Y483071D01*
X441943Y483421D01*
X441035Y483540D01*
D02*
G37*
G36*
X466000Y485505D02*
X465093Y485386D01*
X464248Y485035D01*
X463522Y484478D01*
X462965Y483752D01*
X462614Y482907D01*
X462495Y482000D01*
X462614Y481093D01*
X462965Y480247D01*
X463522Y479522D01*
X464248Y478965D01*
X464496Y478862D01*
Y465138D01*
X464248Y465035D01*
X463522Y464478D01*
X462965Y463753D01*
X462614Y462907D01*
X462495Y462000D01*
X462614Y461093D01*
X462965Y460248D01*
X463522Y459522D01*
X464248Y458965D01*
X465093Y458614D01*
X466000Y458495D01*
X466907Y458614D01*
X467753Y458965D01*
X468478Y459522D01*
X469035Y460248D01*
X469386Y461093D01*
X469505Y462000D01*
X469386Y462907D01*
X469035Y463753D01*
X468478Y464478D01*
X467753Y465035D01*
X467504Y465138D01*
Y478862D01*
X467753Y478965D01*
X468478Y479522D01*
X469035Y480247D01*
X469386Y481093D01*
X469505Y482000D01*
X469386Y482907D01*
X469035Y483752D01*
X468478Y484478D01*
X467753Y485035D01*
X466907Y485386D01*
X466000Y485505D01*
D02*
G37*
G36*
X495626Y475805D02*
X494344Y475636D01*
X493149Y475141D01*
X492123Y474354D01*
X491335Y473328D01*
X490840Y472133D01*
X490672Y470850D01*
X490840Y469568D01*
X491335Y468373D01*
X492123Y467347D01*
X493149Y466560D01*
X494344Y466065D01*
X495626Y465896D01*
X496908Y466065D01*
X498103Y466560D01*
X499129Y467347D01*
X499917Y468373D01*
X500412Y469568D01*
X500580Y470850D01*
X500412Y472133D01*
X499917Y473328D01*
X499129Y474354D01*
X498103Y475141D01*
X496908Y475636D01*
X495626Y475805D01*
D02*
G37*
G36*
X415323Y479142D02*
X412358D01*
Y476177D01*
X412772Y476232D01*
X413623Y476585D01*
X414354Y477146D01*
X414915Y477877D01*
X415268Y478728D01*
X415323Y479142D01*
D02*
G37*
G36*
X411358D02*
X408394D01*
X408448Y478728D01*
X408801Y477877D01*
X409362Y477146D01*
X410093Y476585D01*
X410945Y476232D01*
X411358Y476177D01*
Y479142D01*
D02*
G37*
G36*
X286000Y496009D02*
X284962Y495873D01*
X283995Y495472D01*
X283165Y494835D01*
X282528Y494005D01*
X282127Y493038D01*
X281991Y492000D01*
Y488000D01*
X282127Y486962D01*
X282528Y485995D01*
X283165Y485165D01*
X283995Y484528D01*
X284962Y484127D01*
X286000Y483991D01*
X287038Y484127D01*
X288005Y484528D01*
X288835Y485165D01*
X289472Y485995D01*
X289873Y486962D01*
X290009Y488000D01*
Y492000D01*
X289873Y493038D01*
X289472Y494005D01*
X288835Y494835D01*
X288005Y495472D01*
X287038Y495873D01*
X286000Y496009D01*
D02*
G37*
G36*
X276000D02*
X274962Y495873D01*
X273995Y495472D01*
X273165Y494835D01*
X272528Y494005D01*
X272127Y493038D01*
X271991Y492000D01*
Y488000D01*
X272127Y486962D01*
X272528Y485995D01*
X273165Y485165D01*
X273995Y484528D01*
X274962Y484127D01*
X276000Y483991D01*
X277038Y484127D01*
X278005Y484528D01*
X278835Y485165D01*
X279472Y485995D01*
X279873Y486962D01*
X280009Y488000D01*
Y492000D01*
X279873Y493038D01*
X279472Y494005D01*
X278835Y494835D01*
X278005Y495472D01*
X277038Y495873D01*
X276000Y496009D01*
D02*
G37*
G36*
X296000D02*
X294962Y495873D01*
X293995Y495472D01*
X293165Y494835D01*
X292528Y494005D01*
X292127Y493038D01*
X291991Y492000D01*
Y488000D01*
X292127Y486962D01*
X292528Y485995D01*
X293165Y485165D01*
X293995Y484528D01*
X294962Y484127D01*
X296000Y483991D01*
X297038Y484127D01*
X298005Y484528D01*
X298835Y485165D01*
X299472Y485995D01*
X299873Y486962D01*
X300009Y488000D01*
Y492000D01*
X299873Y493038D01*
X299472Y494005D01*
X298835Y494835D01*
X298005Y495472D01*
X297038Y495873D01*
X296000Y496009D01*
D02*
G37*
G36*
X316000D02*
X314962Y495873D01*
X313995Y495472D01*
X313165Y494835D01*
X312528Y494005D01*
X312127Y493038D01*
X311991Y492000D01*
Y488000D01*
X312127Y486962D01*
X312528Y485995D01*
X313165Y485165D01*
X313995Y484528D01*
X314962Y484127D01*
X316000Y483991D01*
X317038Y484127D01*
X318005Y484528D01*
X318835Y485165D01*
X319472Y485995D01*
X319873Y486962D01*
X320009Y488000D01*
Y492000D01*
X319873Y493038D01*
X319472Y494005D01*
X318835Y494835D01*
X318005Y495472D01*
X317038Y495873D01*
X316000Y496009D01*
D02*
G37*
G36*
X306000D02*
X304962Y495873D01*
X303995Y495472D01*
X303165Y494835D01*
X302528Y494005D01*
X302127Y493038D01*
X301991Y492000D01*
Y488000D01*
X302127Y486962D01*
X302528Y485995D01*
X303165Y485165D01*
X303995Y484528D01*
X304962Y484127D01*
X306000Y483991D01*
X307038Y484127D01*
X308005Y484528D01*
X308835Y485165D01*
X309472Y485995D01*
X309873Y486962D01*
X310009Y488000D01*
Y492000D01*
X309873Y493038D01*
X309472Y494005D01*
X308835Y494835D01*
X308005Y495472D01*
X307038Y495873D01*
X306000Y496009D01*
D02*
G37*
G36*
X266000D02*
X264962Y495873D01*
X263995Y495472D01*
X263165Y494835D01*
X262528Y494005D01*
X262127Y493038D01*
X261991Y492000D01*
Y488000D01*
X262127Y486962D01*
X262528Y485995D01*
X263165Y485165D01*
X263995Y484528D01*
X264962Y484127D01*
X266000Y483991D01*
X267038Y484127D01*
X268005Y484528D01*
X268835Y485165D01*
X269472Y485995D01*
X269873Y486962D01*
X270009Y488000D01*
Y492000D01*
X269873Y493038D01*
X269472Y494005D01*
X268835Y494835D01*
X268005Y495472D01*
X267038Y495873D01*
X266000Y496009D01*
D02*
G37*
G36*
X226000D02*
X224962Y495873D01*
X223995Y495472D01*
X223165Y494835D01*
X222528Y494005D01*
X222127Y493038D01*
X221991Y492000D01*
Y488000D01*
X222127Y486962D01*
X222528Y485995D01*
X223165Y485165D01*
X223995Y484528D01*
X224962Y484127D01*
X226000Y483991D01*
X227038Y484127D01*
X228005Y484528D01*
X228835Y485165D01*
X229472Y485995D01*
X229873Y486962D01*
X230009Y488000D01*
Y492000D01*
X229873Y493038D01*
X229472Y494005D01*
X228835Y494835D01*
X228005Y495472D01*
X227038Y495873D01*
X226000Y496009D01*
D02*
G37*
G36*
X216000D02*
X214962Y495873D01*
X213995Y495472D01*
X213165Y494835D01*
X212528Y494005D01*
X212127Y493038D01*
X211991Y492000D01*
Y488000D01*
X212127Y486962D01*
X212528Y485995D01*
X213165Y485165D01*
X213995Y484528D01*
X214962Y484127D01*
X216000Y483991D01*
X217038Y484127D01*
X218005Y484528D01*
X218835Y485165D01*
X219472Y485995D01*
X219873Y486962D01*
X220009Y488000D01*
Y492000D01*
X219873Y493038D01*
X219472Y494005D01*
X218835Y494835D01*
X218005Y495472D01*
X217038Y495873D01*
X216000Y496009D01*
D02*
G37*
G36*
X236000D02*
X234962Y495873D01*
X233995Y495472D01*
X233165Y494835D01*
X232528Y494005D01*
X232127Y493038D01*
X231991Y492000D01*
Y488000D01*
X232127Y486962D01*
X232528Y485995D01*
X233165Y485165D01*
X233995Y484528D01*
X234962Y484127D01*
X236000Y483991D01*
X237038Y484127D01*
X238005Y484528D01*
X238835Y485165D01*
X239472Y485995D01*
X239873Y486962D01*
X240009Y488000D01*
Y492000D01*
X239873Y493038D01*
X239472Y494005D01*
X238835Y494835D01*
X238005Y495472D01*
X237038Y495873D01*
X236000Y496009D01*
D02*
G37*
G36*
X256000D02*
X254962Y495873D01*
X253995Y495472D01*
X253165Y494835D01*
X252528Y494005D01*
X252127Y493038D01*
X251991Y492000D01*
Y488000D01*
X252127Y486962D01*
X252528Y485995D01*
X253165Y485165D01*
X253995Y484528D01*
X254962Y484127D01*
X256000Y483991D01*
X257038Y484127D01*
X258005Y484528D01*
X258835Y485165D01*
X259472Y485995D01*
X259873Y486962D01*
X260009Y488000D01*
Y492000D01*
X259873Y493038D01*
X259472Y494005D01*
X258835Y494835D01*
X258005Y495472D01*
X257038Y495873D01*
X256000Y496009D01*
D02*
G37*
G36*
X246000D02*
X244962Y495873D01*
X243995Y495472D01*
X243165Y494835D01*
X242528Y494005D01*
X242127Y493038D01*
X241991Y492000D01*
Y488000D01*
X242127Y486962D01*
X242528Y485995D01*
X243165Y485165D01*
X243995Y484528D01*
X244962Y484127D01*
X246000Y483991D01*
X247038Y484127D01*
X248005Y484528D01*
X248835Y485165D01*
X249472Y485995D01*
X249873Y486962D01*
X250009Y488000D01*
Y492000D01*
X249873Y493038D01*
X249472Y494005D01*
X248835Y494835D01*
X248005Y495472D01*
X247038Y495873D01*
X246000Y496009D01*
D02*
G37*
G36*
X391142Y457106D02*
Y454142D01*
X394106D01*
X394052Y454556D01*
X393699Y455407D01*
X393138Y456138D01*
X392407Y456699D01*
X391556Y457052D01*
X391142Y457106D01*
D02*
G37*
G36*
X256000Y436009D02*
X254962Y435873D01*
X253995Y435472D01*
X253165Y434835D01*
X252528Y434005D01*
X252127Y433038D01*
X251991Y432000D01*
Y428000D01*
X252127Y426962D01*
X252528Y425995D01*
X253165Y425165D01*
X253995Y424528D01*
X254962Y424127D01*
X256000Y423991D01*
X257038Y424127D01*
X258005Y424528D01*
X258835Y425165D01*
X259472Y425995D01*
X259873Y426962D01*
X260009Y428000D01*
Y432000D01*
X259873Y433038D01*
X259472Y434005D01*
X258835Y434835D01*
X258005Y435472D01*
X257038Y435873D01*
X256000Y436009D01*
D02*
G37*
G36*
X246000D02*
X244962Y435873D01*
X243995Y435472D01*
X243165Y434835D01*
X242528Y434005D01*
X242127Y433038D01*
X241991Y432000D01*
Y428000D01*
X242127Y426962D01*
X242528Y425995D01*
X243165Y425165D01*
X243995Y424528D01*
X244962Y424127D01*
X246000Y423991D01*
X247038Y424127D01*
X248005Y424528D01*
X248835Y425165D01*
X249472Y425995D01*
X249873Y426962D01*
X250009Y428000D01*
Y432000D01*
X249873Y433038D01*
X249472Y434005D01*
X248835Y434835D01*
X248005Y435472D01*
X247038Y435873D01*
X246000Y436009D01*
D02*
G37*
G36*
X266000D02*
X264962Y435873D01*
X263995Y435472D01*
X263165Y434835D01*
X262528Y434005D01*
X262127Y433038D01*
X261991Y432000D01*
Y428000D01*
X262127Y426962D01*
X262528Y425995D01*
X263165Y425165D01*
X263995Y424528D01*
X264962Y424127D01*
X266000Y423991D01*
X267038Y424127D01*
X268005Y424528D01*
X268835Y425165D01*
X269472Y425995D01*
X269873Y426962D01*
X270009Y428000D01*
Y432000D01*
X269873Y433038D01*
X269472Y434005D01*
X268835Y434835D01*
X268005Y435472D01*
X267038Y435873D01*
X266000Y436009D01*
D02*
G37*
G36*
X286000D02*
X284962Y435873D01*
X283995Y435472D01*
X283165Y434835D01*
X282528Y434005D01*
X282127Y433038D01*
X281991Y432000D01*
Y428000D01*
X282127Y426962D01*
X282528Y425995D01*
X283165Y425165D01*
X283995Y424528D01*
X284962Y424127D01*
X286000Y423991D01*
X287038Y424127D01*
X288005Y424528D01*
X288835Y425165D01*
X289472Y425995D01*
X289873Y426962D01*
X290009Y428000D01*
Y432000D01*
X289873Y433038D01*
X289472Y434005D01*
X288835Y434835D01*
X288005Y435472D01*
X287038Y435873D01*
X286000Y436009D01*
D02*
G37*
G36*
X276000D02*
X274962Y435873D01*
X273995Y435472D01*
X273165Y434835D01*
X272528Y434005D01*
X272127Y433038D01*
X271991Y432000D01*
Y428000D01*
X272127Y426962D01*
X272528Y425995D01*
X273165Y425165D01*
X273995Y424528D01*
X274962Y424127D01*
X276000Y423991D01*
X277038Y424127D01*
X278005Y424528D01*
X278835Y425165D01*
X279472Y425995D01*
X279873Y426962D01*
X280009Y428000D01*
Y432000D01*
X279873Y433038D01*
X279472Y434005D01*
X278835Y434835D01*
X278005Y435472D01*
X277038Y435873D01*
X276000Y436009D01*
D02*
G37*
G36*
X236000D02*
X234962Y435873D01*
X233995Y435472D01*
X233165Y434835D01*
X232528Y434005D01*
X232127Y433038D01*
X231991Y432000D01*
Y428000D01*
X232127Y426962D01*
X232528Y425995D01*
X233165Y425165D01*
X233995Y424528D01*
X234962Y424127D01*
X236000Y423991D01*
X237038Y424127D01*
X238005Y424528D01*
X238835Y425165D01*
X239472Y425995D01*
X239873Y426962D01*
X240009Y428000D01*
Y432000D01*
X239873Y433038D01*
X239472Y434005D01*
X238835Y434835D01*
X238005Y435472D01*
X237038Y435873D01*
X236000Y436009D01*
D02*
G37*
G36*
X495000Y422511D02*
X493535Y422367D01*
X492126Y421939D01*
X490827Y421245D01*
X489689Y420311D01*
X488755Y419173D01*
X488061Y417874D01*
X487633Y416465D01*
X487489Y415000D01*
X487633Y413535D01*
X488061Y412126D01*
X488755Y410827D01*
X489689Y409689D01*
X490827Y408755D01*
X492126Y408061D01*
X493535Y407633D01*
X495000Y407489D01*
X496465Y407633D01*
X497874Y408061D01*
X499173Y408755D01*
X500311Y409689D01*
X501245Y410827D01*
X501939Y412126D01*
X502367Y413535D01*
X502511Y415000D01*
X502367Y416465D01*
X501939Y417874D01*
X501245Y419173D01*
X500311Y420311D01*
X499173Y421245D01*
X497874Y421939D01*
X496465Y422367D01*
X495000Y422511D01*
D02*
G37*
G36*
X215000D02*
X213535Y422367D01*
X212126Y421939D01*
X210827Y421245D01*
X209689Y420311D01*
X208755Y419173D01*
X208061Y417874D01*
X207633Y416465D01*
X207489Y415000D01*
X207633Y413535D01*
X208061Y412126D01*
X208755Y410827D01*
X209689Y409689D01*
X210827Y408755D01*
X212126Y408061D01*
X213535Y407633D01*
X215000Y407489D01*
X216465Y407633D01*
X217874Y408061D01*
X219173Y408755D01*
X220311Y409689D01*
X221245Y410827D01*
X221939Y412126D01*
X222367Y413535D01*
X222511Y415000D01*
X222367Y416465D01*
X221939Y417874D01*
X221245Y419173D01*
X220311Y420311D01*
X219173Y421245D01*
X217874Y421939D01*
X216465Y422367D01*
X215000Y422511D01*
D02*
G37*
G36*
X206000Y436009D02*
X204962Y435873D01*
X203995Y435472D01*
X203165Y434835D01*
X202528Y434005D01*
X202127Y433038D01*
X201991Y432000D01*
Y428000D01*
X202127Y426962D01*
X202528Y425995D01*
X203165Y425165D01*
X203995Y424528D01*
X204962Y424127D01*
X206000Y423991D01*
X207038Y424127D01*
X208005Y424528D01*
X208835Y425165D01*
X209472Y425995D01*
X209873Y426962D01*
X210009Y428000D01*
Y432000D01*
X209873Y433038D01*
X209472Y434005D01*
X208835Y434835D01*
X208005Y435472D01*
X207038Y435873D01*
X206000Y436009D01*
D02*
G37*
G36*
X226000D02*
X224962Y435873D01*
X223995Y435472D01*
X223165Y434835D01*
X222528Y434005D01*
X222127Y433038D01*
X221991Y432000D01*
Y428000D01*
X222127Y426962D01*
X222528Y425995D01*
X223165Y425165D01*
X223995Y424528D01*
X224962Y424127D01*
X226000Y423991D01*
X227038Y424127D01*
X228005Y424528D01*
X228835Y425165D01*
X229472Y425995D01*
X229873Y426962D01*
X230009Y428000D01*
Y432000D01*
X229873Y433038D01*
X229472Y434005D01*
X228835Y434835D01*
X228005Y435472D01*
X227038Y435873D01*
X226000Y436009D01*
D02*
G37*
G36*
X216000D02*
X214962Y435873D01*
X213995Y435472D01*
X213165Y434835D01*
X212528Y434005D01*
X212127Y433038D01*
X211991Y432000D01*
Y428000D01*
X212127Y426962D01*
X212528Y425995D01*
X213165Y425165D01*
X213995Y424528D01*
X214962Y424127D01*
X216000Y423991D01*
X217038Y424127D01*
X218005Y424528D01*
X218835Y425165D01*
X219472Y425995D01*
X219873Y426962D01*
X220009Y428000D01*
Y432000D01*
X219873Y433038D01*
X219472Y434005D01*
X218835Y434835D01*
X218005Y435472D01*
X217038Y435873D01*
X216000Y436009D01*
D02*
G37*
G36*
X336500Y435969D02*
Y430500D01*
X340035D01*
Y432000D01*
X339897Y433044D01*
X339494Y434017D01*
X338853Y434853D01*
X338017Y435494D01*
X337044Y435897D01*
X336500Y435969D01*
D02*
G37*
G36*
X335500D02*
X334956Y435897D01*
X333983Y435494D01*
X333147Y434853D01*
X332506Y434017D01*
X332103Y433044D01*
X331965Y432000D01*
Y430500D01*
X335500D01*
Y435969D01*
D02*
G37*
G36*
X390142Y453142D02*
X387177D01*
X387232Y452728D01*
X387585Y451877D01*
X388146Y451146D01*
X388877Y450585D01*
X389728Y450232D01*
X390142Y450177D01*
Y453142D01*
D02*
G37*
G36*
Y457106D02*
X389728Y457052D01*
X388877Y456699D01*
X388146Y456138D01*
X387585Y455407D01*
X387232Y454556D01*
X387177Y454142D01*
X390142D01*
Y457106D01*
D02*
G37*
G36*
X394106Y453142D02*
X391142D01*
Y450177D01*
X391556Y450232D01*
X392407Y450585D01*
X393138Y451146D01*
X393699Y451877D01*
X394052Y452728D01*
X394106Y453142D01*
D02*
G37*
G36*
X340035Y429500D02*
X336500D01*
Y424031D01*
X337044Y424103D01*
X338017Y424506D01*
X338853Y425147D01*
X339494Y425983D01*
X339897Y426956D01*
X340035Y428000D01*
Y429500D01*
D02*
G37*
G36*
X306000Y436009D02*
X304962Y435873D01*
X303995Y435472D01*
X303165Y434835D01*
X302528Y434005D01*
X302127Y433038D01*
X301991Y432000D01*
Y428000D01*
X302127Y426962D01*
X302528Y425995D01*
X303165Y425165D01*
X303995Y424528D01*
X304962Y424127D01*
X306000Y423991D01*
X307038Y424127D01*
X308005Y424528D01*
X308835Y425165D01*
X309472Y425995D01*
X309873Y426962D01*
X310009Y428000D01*
Y432000D01*
X309873Y433038D01*
X309472Y434005D01*
X308835Y434835D01*
X308005Y435472D01*
X307038Y435873D01*
X306000Y436009D01*
D02*
G37*
G36*
X296000D02*
X294962Y435873D01*
X293995Y435472D01*
X293165Y434835D01*
X292528Y434005D01*
X292127Y433038D01*
X291991Y432000D01*
Y428000D01*
X292127Y426962D01*
X292528Y425995D01*
X293165Y425165D01*
X293995Y424528D01*
X294962Y424127D01*
X296000Y423991D01*
X297038Y424127D01*
X298005Y424528D01*
X298835Y425165D01*
X299472Y425995D01*
X299873Y426962D01*
X300009Y428000D01*
Y432000D01*
X299873Y433038D01*
X299472Y434005D01*
X298835Y434835D01*
X298005Y435472D01*
X297038Y435873D01*
X296000Y436009D01*
D02*
G37*
G36*
X326000D02*
X324962Y435873D01*
X323995Y435472D01*
X323165Y434835D01*
X322528Y434005D01*
X322127Y433038D01*
X321991Y432000D01*
Y428000D01*
X322127Y426962D01*
X322528Y425995D01*
X323165Y425165D01*
X323995Y424528D01*
X324962Y424127D01*
X326000Y423991D01*
X327038Y424127D01*
X328005Y424528D01*
X328835Y425165D01*
X329472Y425995D01*
X329873Y426962D01*
X330009Y428000D01*
Y432000D01*
X329873Y433038D01*
X329472Y434005D01*
X328835Y434835D01*
X328005Y435472D01*
X327038Y435873D01*
X326000Y436009D01*
D02*
G37*
G36*
X335500Y429500D02*
X331965D01*
Y428000D01*
X332103Y426956D01*
X332506Y425983D01*
X333147Y425147D01*
X333983Y424506D01*
X334956Y424103D01*
X335500Y424031D01*
Y429500D01*
D02*
G37*
G36*
X346000Y436009D02*
X344962Y435873D01*
X343995Y435472D01*
X343165Y434835D01*
X342528Y434005D01*
X342127Y433038D01*
X341991Y432000D01*
Y428000D01*
X342127Y426962D01*
X342528Y425995D01*
X343165Y425165D01*
X343995Y424528D01*
X344962Y424127D01*
X346000Y423991D01*
X347038Y424127D01*
X348005Y424528D01*
X348835Y425165D01*
X349472Y425995D01*
X349873Y426962D01*
X350009Y428000D01*
Y432000D01*
X349873Y433038D01*
X349472Y434005D01*
X348835Y434835D01*
X348005Y435472D01*
X347038Y435873D01*
X346000Y436009D01*
D02*
G37*
G36*
X326000Y496009D02*
X324962Y495873D01*
X323995Y495472D01*
X323165Y494835D01*
X322528Y494005D01*
X322127Y493038D01*
X321991Y492000D01*
Y488000D01*
X322127Y486962D01*
X322528Y485995D01*
X323165Y485165D01*
X323995Y484528D01*
X324962Y484127D01*
X326000Y483991D01*
X327038Y484127D01*
X328005Y484528D01*
X328835Y485165D01*
X329472Y485995D01*
X329873Y486962D01*
X330009Y488000D01*
Y492000D01*
X329873Y493038D01*
X329472Y494005D01*
X328835Y494835D01*
X328005Y495472D01*
X327038Y495873D01*
X326000Y496009D01*
D02*
G37*
G36*
X375295Y526094D02*
X371843D01*
Y522642D01*
X375295D01*
Y526094D01*
D02*
G37*
G36*
X423748Y526094D02*
X420295D01*
Y522642D01*
X423748D01*
Y526094D01*
D02*
G37*
G36*
X379748Y526094D02*
X376295D01*
Y522642D01*
X379748D01*
Y526094D01*
D02*
G37*
G36*
X278945Y530500D02*
X274972D01*
Y526527D01*
X275647Y526616D01*
X276742Y527069D01*
X277682Y527791D01*
X278403Y528731D01*
X278857Y529825D01*
X278945Y530500D01*
D02*
G37*
G36*
X273972D02*
X269999D01*
X270088Y529825D01*
X270542Y528731D01*
X271263Y527791D01*
X272203Y527069D01*
X273298Y526616D01*
X273972Y526527D01*
Y530500D01*
D02*
G37*
G36*
X419295Y526094D02*
X415842D01*
Y522642D01*
X419295D01*
Y526094D01*
D02*
G37*
G36*
X379748Y521642D02*
X376295D01*
Y518189D01*
X379748D01*
Y521642D01*
D02*
G37*
G36*
X375295D02*
X371843D01*
Y518189D01*
X375295D01*
Y521642D01*
D02*
G37*
G36*
X248000Y529009D02*
X246962Y528873D01*
X245995Y528472D01*
X245165Y527835D01*
X244528Y527005D01*
X244127Y526038D01*
X243991Y525000D01*
X244127Y523962D01*
X244528Y522995D01*
X245165Y522165D01*
X245995Y521528D01*
X246962Y521127D01*
X248000Y520991D01*
X249038Y521127D01*
X250005Y521528D01*
X250835Y522165D01*
X251472Y522995D01*
X251873Y523962D01*
X252009Y525000D01*
X251873Y526038D01*
X251472Y527005D01*
X250835Y527835D01*
X250005Y528472D01*
X249038Y528873D01*
X248000Y529009D01*
D02*
G37*
G36*
X332059Y525631D02*
Y521658D01*
X336032D01*
X335943Y522332D01*
X335490Y523427D01*
X334769Y524367D01*
X333828Y525088D01*
X332734Y525542D01*
X332059Y525631D01*
D02*
G37*
G36*
X331059D02*
X330384Y525542D01*
X329290Y525088D01*
X328350Y524367D01*
X327628Y523427D01*
X327175Y522332D01*
X327086Y521658D01*
X331059D01*
Y525631D01*
D02*
G37*
G36*
X248000Y539009D02*
X246962Y538873D01*
X245995Y538472D01*
X245165Y537835D01*
X244528Y537005D01*
X244127Y536038D01*
X243991Y535000D01*
X244127Y533962D01*
X244528Y532995D01*
X245165Y532165D01*
X245995Y531528D01*
X246962Y531127D01*
X248000Y530991D01*
X249038Y531127D01*
X250005Y531528D01*
X250835Y532165D01*
X251472Y532995D01*
X251873Y533962D01*
X252009Y535000D01*
X251873Y536038D01*
X251472Y537005D01*
X250835Y537835D01*
X250005Y538472D01*
X249038Y538873D01*
X248000Y539009D01*
D02*
G37*
G36*
X331559Y545356D02*
X330391Y545202D01*
X329302Y544751D01*
X328367Y544034D01*
X327650Y543099D01*
X327199Y542011D01*
X327045Y540842D01*
X327199Y539674D01*
X327650Y538586D01*
X328367Y537651D01*
X329302Y536934D01*
X330391Y536483D01*
X331559Y536329D01*
X332727Y536483D01*
X333816Y536934D01*
X334751Y537651D01*
X335468Y538586D01*
X335919Y539674D01*
X336073Y540842D01*
X335919Y542011D01*
X335468Y543099D01*
X334751Y544034D01*
X333816Y544751D01*
X332727Y545202D01*
X331559Y545356D01*
D02*
G37*
G36*
X274472D02*
X273304Y545202D01*
X272216Y544751D01*
X271281Y544034D01*
X270564Y543099D01*
X270113Y542011D01*
X269959Y540842D01*
X270113Y539674D01*
X270564Y538586D01*
X271281Y537651D01*
X272216Y536934D01*
X273304Y536483D01*
X274472Y536329D01*
X275641Y536483D01*
X276729Y536934D01*
X277664Y537651D01*
X278381Y538586D01*
X278832Y539674D01*
X278986Y540842D01*
X278832Y542011D01*
X278381Y543099D01*
X277664Y544034D01*
X276729Y544751D01*
X275641Y545202D01*
X274472Y545356D01*
D02*
G37*
G36*
X215000Y562511D02*
X213535Y562367D01*
X212126Y561939D01*
X210827Y561245D01*
X209689Y560311D01*
X208755Y559173D01*
X208061Y557874D01*
X207633Y556465D01*
X207489Y555000D01*
X207633Y553535D01*
X208061Y552126D01*
X208755Y550827D01*
X209689Y549689D01*
X210827Y548755D01*
X212126Y548061D01*
X213535Y547633D01*
X215000Y547489D01*
X216465Y547633D01*
X217874Y548061D01*
X219173Y548755D01*
X220311Y549689D01*
X221245Y550827D01*
X221939Y552126D01*
X222367Y553535D01*
X222511Y555000D01*
X222367Y556465D01*
X221939Y557874D01*
X221245Y559173D01*
X220311Y560311D01*
X219173Y561245D01*
X217874Y561939D01*
X216465Y562367D01*
X215000Y562511D01*
D02*
G37*
G36*
X305968Y561939D02*
X302031D01*
X300749Y561770D01*
X299554Y561275D01*
X298528Y560488D01*
X297741Y559461D01*
X297246Y558266D01*
X297077Y556984D01*
X297246Y555702D01*
X297741Y554507D01*
X298528Y553481D01*
X299554Y552694D01*
X300749Y552199D01*
X302031Y552030D01*
X305968D01*
X307251Y552199D01*
X308446Y552694D01*
X309472Y553481D01*
X310259Y554507D01*
X310754Y555702D01*
X310923Y556984D01*
X310754Y558266D01*
X310259Y559461D01*
X309472Y560488D01*
X308446Y561275D01*
X307251Y561770D01*
X305968Y561939D01*
D02*
G37*
G36*
X495000Y562511D02*
X493535Y562367D01*
X492126Y561939D01*
X490827Y561245D01*
X489689Y560311D01*
X488755Y559173D01*
X488061Y557874D01*
X487633Y556465D01*
X487489Y555000D01*
X487633Y553535D01*
X488061Y552126D01*
X488755Y550827D01*
X489689Y549689D01*
X490827Y548755D01*
X492126Y548061D01*
X493535Y547633D01*
X495000Y547489D01*
X496465Y547633D01*
X497874Y548061D01*
X499173Y548755D01*
X500311Y549689D01*
X501245Y550827D01*
X501939Y552126D01*
X502367Y553535D01*
X502511Y555000D01*
X502367Y556465D01*
X501939Y557874D01*
X501245Y559173D01*
X500311Y560311D01*
X499173Y561245D01*
X497874Y561939D01*
X496465Y562367D01*
X495000Y562511D01*
D02*
G37*
G36*
X419795Y543820D02*
X418770Y543685D01*
X417814Y543289D01*
X416994Y542660D01*
X416364Y541839D01*
X415969Y540884D01*
X415834Y539858D01*
X415969Y538833D01*
X416364Y537878D01*
X416994Y537057D01*
X417814Y536427D01*
X418770Y536032D01*
X419795Y535897D01*
X420821Y536032D01*
X421776Y536427D01*
X422597Y537057D01*
X423226Y537878D01*
X423622Y538833D01*
X423757Y539858D01*
X423622Y540884D01*
X423226Y541839D01*
X422597Y542660D01*
X421776Y543289D01*
X420821Y543685D01*
X419795Y543820D01*
D02*
G37*
G36*
X274972Y535473D02*
Y531500D01*
X278945D01*
X278857Y532175D01*
X278403Y533269D01*
X277682Y534209D01*
X276742Y534931D01*
X275647Y535384D01*
X274972Y535473D01*
D02*
G37*
G36*
X273972D02*
X273298Y535384D01*
X272203Y534931D01*
X271263Y534209D01*
X270542Y533269D01*
X270088Y532175D01*
X269999Y531500D01*
X273972D01*
Y535473D01*
D02*
G37*
G36*
X350205Y543820D02*
X349179Y543685D01*
X348224Y543289D01*
X347404Y542660D01*
X346774Y541839D01*
X346378Y540884D01*
X346243Y539858D01*
X346378Y538833D01*
X346774Y537877D01*
X347404Y537057D01*
X348224Y536427D01*
X349179Y536031D01*
X350205Y535897D01*
X351230Y536031D01*
X352186Y536427D01*
X353006Y537057D01*
X353636Y537877D01*
X354031Y538833D01*
X354166Y539858D01*
X354031Y540884D01*
X353636Y541839D01*
X353006Y542660D01*
X352186Y543289D01*
X351230Y543685D01*
X350205Y543820D01*
D02*
G37*
G36*
X394205Y543820D02*
X393179Y543685D01*
X392224Y543289D01*
X391403Y542660D01*
X390774Y541839D01*
X390378Y540884D01*
X390243Y539858D01*
X390378Y538833D01*
X390774Y537878D01*
X391403Y537057D01*
X392224Y536427D01*
X393179Y536032D01*
X394205Y535897D01*
X395230Y536032D01*
X396185Y536427D01*
X397006Y537057D01*
X397636Y537878D01*
X398031Y538833D01*
X398166Y539858D01*
X398031Y540884D01*
X397636Y541839D01*
X397006Y542660D01*
X396185Y543289D01*
X395230Y543685D01*
X394205Y543820D01*
D02*
G37*
G36*
X375795Y543820D02*
X374770Y543685D01*
X373815Y543289D01*
X372994Y542660D01*
X372364Y541839D01*
X371969Y540884D01*
X371834Y539858D01*
X371969Y538833D01*
X372364Y537877D01*
X372994Y537057D01*
X373815Y536427D01*
X374770Y536031D01*
X375795Y535897D01*
X376821Y536031D01*
X377776Y536427D01*
X378597Y537057D01*
X379226Y537877D01*
X379622Y538833D01*
X379757Y539858D01*
X379622Y540884D01*
X379226Y541839D01*
X378597Y542660D01*
X377776Y543289D01*
X376821Y543685D01*
X375795Y543820D01*
D02*
G37*
G36*
X417208Y506256D02*
X414244D01*
Y503292D01*
X414658Y503346D01*
X415509Y503699D01*
X416240Y504260D01*
X416801Y504991D01*
X417154Y505842D01*
X417208Y506256D01*
D02*
G37*
G36*
X392720D02*
X389756D01*
Y503292D01*
X390170Y503346D01*
X391021Y503699D01*
X391752Y504260D01*
X392313Y504991D01*
X392666Y505842D01*
X392720Y506256D01*
D02*
G37*
G36*
X388756Y510220D02*
X388342Y510166D01*
X387491Y509813D01*
X386760Y509252D01*
X386199Y508521D01*
X385846Y507670D01*
X385792Y507256D01*
X388756D01*
Y510220D01*
D02*
G37*
G36*
X413244D02*
X412830Y510166D01*
X411979Y509813D01*
X411248Y509252D01*
X410687Y508521D01*
X410334Y507670D01*
X410280Y507256D01*
X413244D01*
Y510220D01*
D02*
G37*
G36*
X389756D02*
Y507256D01*
X392720D01*
X392666Y507670D01*
X392313Y508521D01*
X391752Y509252D01*
X391021Y509813D01*
X390170Y510166D01*
X389756Y510220D01*
D02*
G37*
G36*
X388756Y506256D02*
X385792D01*
X385846Y505842D01*
X386199Y504991D01*
X386760Y504260D01*
X387491Y503699D01*
X388342Y503346D01*
X388756Y503292D01*
Y506256D01*
D02*
G37*
G36*
X349975Y495975D02*
X342025D01*
Y484025D01*
X349975D01*
Y495975D01*
D02*
G37*
G36*
X336000Y496009D02*
X334962Y495873D01*
X333995Y495472D01*
X333165Y494835D01*
X332528Y494005D01*
X332127Y493038D01*
X331991Y492000D01*
Y488000D01*
X332127Y486962D01*
X332528Y485995D01*
X333165Y485165D01*
X333995Y484528D01*
X334962Y484127D01*
X336000Y483991D01*
X337038Y484127D01*
X338005Y484528D01*
X338835Y485165D01*
X339472Y485995D01*
X339873Y486962D01*
X340009Y488000D01*
Y492000D01*
X339873Y493038D01*
X339472Y494005D01*
X338835Y494835D01*
X338005Y495472D01*
X337038Y495873D01*
X336000Y496009D01*
D02*
G37*
G36*
X484000Y502423D02*
X483093Y502304D01*
X482247Y501954D01*
X481522Y501397D01*
X480965Y500671D01*
X480614Y499825D01*
X480495Y498918D01*
X480614Y498011D01*
X480965Y497166D01*
X481522Y496440D01*
X482247Y495883D01*
X483093Y495533D01*
X484000Y495413D01*
X484907Y495533D01*
X485156Y495636D01*
X491355Y489436D01*
X491331Y489318D01*
X491504Y488450D01*
X491996Y487714D01*
X492732Y487222D01*
X493600Y487049D01*
X494468Y487222D01*
X494909Y487517D01*
X495359Y487216D01*
X495268Y486759D01*
X495359Y486302D01*
X494909Y486001D01*
X494468Y486296D01*
X493600Y486469D01*
X492732Y486296D01*
X491996Y485804D01*
X491504Y485068D01*
X491331Y484200D01*
X491504Y483332D01*
X491996Y482596D01*
X492732Y482104D01*
X493600Y481931D01*
X494468Y482104D01*
X494909Y482399D01*
X495359Y482098D01*
X495268Y481641D01*
X495353Y481218D01*
X494903Y480918D01*
X494478Y481201D01*
X494100Y481277D01*
Y479582D01*
X495900D01*
X496257Y479820D01*
X496669Y479545D01*
X497537Y479372D01*
X498405Y479545D01*
X499141Y480037D01*
X499633Y480773D01*
X499806Y481641D01*
X499633Y482509D01*
X499141Y483245D01*
X498405Y483737D01*
X497537Y483910D01*
X496669Y483737D01*
X496228Y483442D01*
X495778Y483743D01*
X495869Y484200D01*
X495778Y484657D01*
X496228Y484958D01*
X496669Y484663D01*
X497537Y484490D01*
X498405Y484663D01*
X499141Y485155D01*
X499633Y485891D01*
X499806Y486759D01*
X499633Y487627D01*
X499141Y488363D01*
X498405Y488855D01*
X497537Y489028D01*
X496669Y488855D01*
X496228Y488560D01*
X495778Y488861D01*
X495869Y489318D01*
X495696Y490186D01*
X495204Y490922D01*
X494468Y491414D01*
X493600Y491587D01*
X493482Y491563D01*
X487283Y497762D01*
X487386Y498011D01*
X487505Y498918D01*
X487386Y499825D01*
X487035Y500671D01*
X486478Y501397D01*
X485752Y501954D01*
X484907Y502304D01*
X484000Y502423D01*
D02*
G37*
G36*
X305968Y509970D02*
X302031D01*
X300749Y509801D01*
X299554Y509306D01*
X298528Y508519D01*
X297741Y507493D01*
X297246Y506298D01*
X297077Y505016D01*
X297246Y503733D01*
X297741Y502539D01*
X298528Y501512D01*
X299554Y500725D01*
X300749Y500230D01*
X302031Y500061D01*
X305968D01*
X307251Y500230D01*
X308446Y500725D01*
X309472Y501512D01*
X310259Y502539D01*
X310754Y503733D01*
X310923Y505016D01*
X310754Y506298D01*
X310259Y507493D01*
X309472Y508519D01*
X308446Y509306D01*
X307251Y509801D01*
X305968Y509970D01*
D02*
G37*
G36*
X495626Y503954D02*
X494344Y503786D01*
X493149Y503291D01*
X492123Y502503D01*
X491335Y501477D01*
X490840Y500282D01*
X490672Y499000D01*
X490840Y497718D01*
X491335Y496523D01*
X492123Y495497D01*
X493149Y494709D01*
X494344Y494214D01*
X495626Y494046D01*
X496908Y494214D01*
X498103Y494709D01*
X499129Y495497D01*
X499917Y496523D01*
X500412Y497718D01*
X500580Y499000D01*
X500412Y500282D01*
X499917Y501477D01*
X499129Y502503D01*
X498103Y503291D01*
X496908Y503786D01*
X495626Y503954D01*
D02*
G37*
G36*
X414244Y510220D02*
Y507256D01*
X417208D01*
X417154Y507670D01*
X416801Y508521D01*
X416240Y509252D01*
X415509Y509813D01*
X414658Y510166D01*
X414244Y510220D01*
D02*
G37*
G36*
X394205Y526103D02*
X393179Y525968D01*
X392224Y525573D01*
X391403Y524943D01*
X390774Y524122D01*
X390378Y523167D01*
X390243Y522142D01*
X390378Y521116D01*
X390774Y520161D01*
X391403Y519340D01*
X392224Y518711D01*
X393179Y518315D01*
X394205Y518180D01*
X395230Y518315D01*
X396185Y518711D01*
X397006Y519340D01*
X397636Y520161D01*
X398031Y521116D01*
X398166Y522142D01*
X398031Y523167D01*
X397636Y524122D01*
X397006Y524943D01*
X396185Y525573D01*
X395230Y525968D01*
X394205Y526103D01*
D02*
G37*
G36*
X336032Y520657D02*
X332059D01*
Y516684D01*
X332734Y516773D01*
X333828Y517227D01*
X334769Y517948D01*
X335490Y518888D01*
X335943Y519983D01*
X336032Y520657D01*
D02*
G37*
G36*
X350205Y526103D02*
X349179Y525969D01*
X348224Y525573D01*
X347404Y524943D01*
X346774Y524123D01*
X346378Y523167D01*
X346243Y522142D01*
X346378Y521116D01*
X346774Y520161D01*
X347404Y519341D01*
X348224Y518711D01*
X349179Y518315D01*
X350205Y518180D01*
X351230Y518315D01*
X352186Y518711D01*
X353006Y519341D01*
X353636Y520161D01*
X354031Y521116D01*
X354166Y522142D01*
X354031Y523167D01*
X353636Y524123D01*
X353006Y524943D01*
X352186Y525573D01*
X351230Y525969D01*
X350205Y526103D01*
D02*
G37*
G36*
X423748Y521642D02*
X420295D01*
Y518189D01*
X423748D01*
Y521642D01*
D02*
G37*
G36*
X419295D02*
X415842D01*
Y518189D01*
X419295D01*
Y521642D01*
D02*
G37*
G36*
X331059Y520657D02*
X327086D01*
X327175Y519983D01*
X327628Y518888D01*
X328350Y517948D01*
X329290Y517227D01*
X330384Y516773D01*
X331059Y516684D01*
Y520657D01*
D02*
G37*
G36*
X445370Y513406D02*
X442406D01*
Y510441D01*
X442819Y510496D01*
X443671Y510848D01*
X444402Y511409D01*
X444963Y512141D01*
X445316Y512992D01*
X445370Y513406D01*
D02*
G37*
G36*
X441406D02*
X438441D01*
X438496Y512992D01*
X438848Y512141D01*
X439409Y511409D01*
X440140Y510848D01*
X440992Y510496D01*
X441406Y510441D01*
Y513406D01*
D02*
G37*
G36*
Y517370D02*
X440992Y517315D01*
X440140Y516963D01*
X439409Y516402D01*
X438848Y515671D01*
X438496Y514819D01*
X438441Y514406D01*
X441406D01*
Y517370D01*
D02*
G37*
G36*
X274472Y525671D02*
X273304Y525517D01*
X272216Y525066D01*
X271281Y524349D01*
X270564Y523414D01*
X270113Y522326D01*
X269959Y521158D01*
X270113Y519989D01*
X270564Y518901D01*
X271281Y517966D01*
X272216Y517249D01*
X272806Y517004D01*
X272707Y516504D01*
X251680D01*
X251472Y517005D01*
X250835Y517835D01*
X250005Y518472D01*
X249038Y518873D01*
X248000Y519009D01*
X246962Y518873D01*
X245995Y518472D01*
X245165Y517835D01*
X244528Y517005D01*
X244127Y516038D01*
X243991Y515000D01*
X244127Y513962D01*
X244528Y512995D01*
X245165Y512165D01*
X245995Y511528D01*
X246962Y511127D01*
X248000Y510991D01*
X249038Y511127D01*
X250005Y511528D01*
X250835Y512165D01*
X251472Y512995D01*
X251680Y513496D01*
X312377D01*
X325693Y500181D01*
X326181Y499855D01*
X326756Y499740D01*
X362133D01*
X366937Y494937D01*
X367425Y494611D01*
X368000Y494496D01*
X368000Y494496D01*
X399716D01*
X399907Y494034D01*
X352377Y446504D01*
X323000D01*
X322425Y446389D01*
X321937Y446063D01*
X321937Y446063D01*
X314937Y439063D01*
X314611Y438576D01*
X314496Y438000D01*
Y435680D01*
X313995Y435472D01*
X313165Y434835D01*
X312528Y434005D01*
X312127Y433038D01*
X311991Y432000D01*
Y428000D01*
X312127Y426962D01*
X312528Y425995D01*
X313165Y425165D01*
X313995Y424528D01*
X314962Y424127D01*
X316000Y423991D01*
X317038Y424127D01*
X318005Y424528D01*
X318835Y425165D01*
X319472Y425995D01*
X319873Y426962D01*
X320009Y428000D01*
Y432000D01*
X319873Y433038D01*
X319472Y434005D01*
X318835Y434835D01*
X318005Y435472D01*
X317504Y435680D01*
Y437377D01*
X323623Y443496D01*
X353000D01*
X353575Y443611D01*
X354063Y443937D01*
X405063Y494937D01*
X408088Y497961D01*
X408337Y497858D01*
X409244Y497739D01*
X410151Y497858D01*
X410996Y498209D01*
X411722Y498766D01*
X412279Y499492D01*
X412630Y500337D01*
X412749Y501244D01*
X412630Y502151D01*
X412279Y502996D01*
X412238Y503050D01*
X412553Y503461D01*
X412830Y503346D01*
X413244Y503292D01*
Y506256D01*
X410280D01*
X410334Y505842D01*
X410687Y504991D01*
X410734Y504929D01*
X410419Y504519D01*
X410151Y504630D01*
X409244Y504749D01*
X408337Y504630D01*
X407491Y504279D01*
X406766Y503722D01*
X406209Y502996D01*
X405858Y502151D01*
X405739Y501244D01*
X405858Y500337D01*
X405961Y500088D01*
X403377Y497504D01*
X368623D01*
X363819Y502307D01*
X363332Y502633D01*
X362756Y502748D01*
X327379D01*
X314063Y516063D01*
X313576Y516389D01*
X313000Y516504D01*
X276238D01*
X276138Y517004D01*
X276729Y517249D01*
X277664Y517966D01*
X278381Y518901D01*
X278832Y519989D01*
X278986Y521158D01*
X278832Y522326D01*
X278381Y523414D01*
X277664Y524349D01*
X276729Y525066D01*
X275641Y525517D01*
X274472Y525671D01*
D02*
G37*
G36*
X442406Y517370D02*
Y514406D01*
X445370D01*
X445316Y514819D01*
X444963Y515671D01*
X444402Y516402D01*
X443671Y516963D01*
X442819Y517315D01*
X442406Y517370D01*
D02*
G37*
%LPD*%
D18*
X484000Y498918D02*
X493600Y489318D01*
X441035Y463000D02*
Y480035D01*
X404000Y496000D02*
X409244Y501244D01*
X368000Y496000D02*
X404000D01*
X362756Y501244D02*
X368000Y496000D01*
X326756Y501244D02*
X362756D01*
X316000Y430000D02*
Y438000D01*
X323000Y445000D01*
X353000D01*
X466000Y462000D02*
Y482000D01*
X353000Y445000D02*
X404000Y496000D01*
X248000Y515000D02*
X313000D01*
X326756Y501244D01*
D19*
X274472Y540842D02*
D03*
Y531000D02*
D03*
Y521158D02*
D03*
X331559Y540842D02*
D03*
Y521158D02*
D03*
D20*
X304000Y556984D02*
D03*
Y505016D02*
D03*
X248000Y525000D02*
D03*
Y515000D02*
D03*
Y535000D02*
D03*
D21*
X375795Y539858D02*
D03*
X350205D02*
D03*
Y522142D02*
D03*
X419795Y539858D02*
D03*
X394205D02*
D03*
Y522142D02*
D03*
D22*
X375795Y522142D02*
D03*
X419795Y522142D02*
D03*
D23*
X215000Y555000D02*
D03*
Y415000D02*
D03*
X495000D02*
D03*
Y555000D02*
D03*
D24*
X346000Y490000D02*
D03*
D25*
X336000D02*
D03*
X326000D02*
D03*
X346000Y430000D02*
D03*
X316000Y490000D02*
D03*
X306000D02*
D03*
X296000D02*
D03*
X286000D02*
D03*
X276000D02*
D03*
X266000D02*
D03*
X256000D02*
D03*
X246000D02*
D03*
X236000D02*
D03*
X226000D02*
D03*
X216000D02*
D03*
X206000D02*
D03*
Y430000D02*
D03*
X216000D02*
D03*
X226000D02*
D03*
X236000D02*
D03*
X246000D02*
D03*
X256000D02*
D03*
X266000D02*
D03*
X276000D02*
D03*
X286000D02*
D03*
X296000D02*
D03*
X306000D02*
D03*
X316000D02*
D03*
X326000D02*
D03*
X336000D02*
D03*
D26*
X495626Y499000D02*
D03*
Y470850D02*
D03*
D27*
X493600Y484200D02*
D03*
Y479082D02*
D03*
Y489318D02*
D03*
X497537Y481641D02*
D03*
Y486759D02*
D03*
D28*
X484000Y498918D02*
D03*
X441035Y480035D02*
D03*
Y463000D02*
D03*
X409244Y501244D02*
D03*
X390642Y453642D02*
D03*
X411858Y479642D02*
D03*
X413744Y506756D02*
D03*
X441906Y513906D02*
D03*
X389256Y506756D02*
D03*
X466000Y462000D02*
D03*
Y482000D02*
D03*
M02*
