M48
;Layer_Color=6321
;FILE_FORMAT=2:5
INCH,LZ
;TYPE=PLATED
T1F00S00C0.01000
T2F00S00C0.02800
T3F00S00C0.03000
T4F00S00C0.03937
T5F00S00C0.04000
T6F00S00C0.05315
T7F00S00C0.09449
;TYPE=NON_PLATED
%
T01
X04936Y0479082
Y04842
Y0489318
X0497537Y0486759
Y0481641
T02
X0390642Y0453642
X0441035Y0463
X0466Y0462
X0484Y0498918
X0466Y0482
X0441035Y0480035
X0411858Y0479642
X0409244Y0501244
X0413744Y0506756
X0389256
X0441906Y0513906
T03
X0248Y0515
Y0525
Y0535
T04
X0346Y043
X0350205Y0522142
Y0539858
X0375795
Y0522142
X0394205Y0522142
Y0539858
X0419795
Y0522142
T05
X0206Y043
X0216
X0226
X0236
X0246
X0256
X0266
X0276
X0286
X0296
X0306
X0316
X0326
X0336
Y049
X0346
X0326
X0316
X0331559Y0521158
Y0540842
X0274472
Y0531
Y0521158
X0276Y049
X0286
X0296
X0306
X0266
X0256
X0246
X0236
X0226
X0216
X0206
T06
X0495626Y047085
Y0499
T07
X0215Y0415
X0495
Y0555
X0215
M30
