G04 Layer_Color=15132400*
%FSLAX25Y25*%
%MOIN*%
G70*
G01*
G75*
%ADD18C,0.01000*%
%ADD29C,0.00984*%
%ADD30C,0.00787*%
G36*
X405055Y428121D02*
X405180Y428093D01*
X405332Y428066D01*
X405499Y428010D01*
X405652Y427941D01*
X405804Y427844D01*
X405818Y427830D01*
X405874Y427788D01*
X405929Y427732D01*
X406012Y427649D01*
X406096Y427552D01*
X406179Y427441D01*
X406262Y427302D01*
X406318Y427163D01*
Y427149D01*
X406332Y427094D01*
X406359Y426997D01*
X406387Y426872D01*
X406401Y426705D01*
X406429Y426497D01*
X406443Y426261D01*
Y425997D01*
Y423055D01*
X407456D01*
Y422000D01*
X405263D01*
Y425942D01*
Y425956D01*
Y425970D01*
Y426053D01*
X405249Y426164D01*
X405235Y426303D01*
X405207Y426455D01*
X405180Y426608D01*
X405124Y426733D01*
X405055Y426830D01*
X405041Y426844D01*
X405013Y426872D01*
X404971Y426900D01*
X404916Y426941D01*
X404833Y426983D01*
X404749Y427025D01*
X404652Y427038D01*
X404541Y427052D01*
X404458D01*
X404402Y427038D01*
X404333Y427025D01*
X404236Y427011D01*
X404028Y426955D01*
X403764Y426858D01*
X403458Y426719D01*
X403292Y426636D01*
X403125Y426539D01*
X402945Y426414D01*
X402765Y426275D01*
Y423055D01*
X403805D01*
Y422000D01*
X400530D01*
Y423055D01*
X401585D01*
Y426983D01*
X400530D01*
Y428038D01*
X402765D01*
Y427302D01*
X402778Y427316D01*
X402820Y427344D01*
X402876Y427385D01*
X402959Y427427D01*
X403056Y427496D01*
X403181Y427566D01*
X403306Y427635D01*
X403458Y427719D01*
X403778Y427871D01*
X404125Y428010D01*
X404305Y428052D01*
X404486Y428093D01*
X404666Y428121D01*
X404846Y428135D01*
X404944D01*
X405055Y428121D01*
D02*
G37*
G36*
X409482Y430800D02*
X409552Y430786D01*
X409635Y430758D01*
X409718Y430730D01*
X409802Y430675D01*
X409885Y430606D01*
X409899Y430592D01*
X409927Y430564D01*
X409954Y430522D01*
X409996Y430467D01*
X410038Y430383D01*
X410079Y430300D01*
X410093Y430203D01*
X410107Y430092D01*
Y430078D01*
Y430050D01*
X410093Y429995D01*
X410079Y429925D01*
X410051Y429842D01*
X410010Y429759D01*
X409954Y429676D01*
X409885Y429592D01*
X409871Y429578D01*
X409843Y429565D01*
X409802Y429523D01*
X409746Y429495D01*
X409593Y429412D01*
X409496Y429398D01*
X409385Y429384D01*
X409344D01*
X409288Y429398D01*
X409219Y429412D01*
X409135Y429440D01*
X409052Y429467D01*
X408969Y429523D01*
X408886Y429592D01*
X408872Y429606D01*
X408858Y429634D01*
X408816Y429676D01*
X408788Y429731D01*
X408705Y429898D01*
X408691Y429981D01*
X408677Y430092D01*
Y430106D01*
Y430148D01*
X408691Y430189D01*
X408705Y430259D01*
X408761Y430425D01*
X408802Y430508D01*
X408872Y430592D01*
X408886Y430606D01*
X408913Y430633D01*
X408955Y430661D01*
X409011Y430703D01*
X409094Y430744D01*
X409177Y430786D01*
X409274Y430800D01*
X409385Y430814D01*
X409441D01*
X409482Y430800D01*
D02*
G37*
G36*
X449221Y423055D02*
X450304D01*
Y422000D01*
X448041D01*
Y422874D01*
X448027Y422861D01*
X447999Y422833D01*
X447958Y422791D01*
X447888Y422722D01*
X447791Y422652D01*
X447694Y422569D01*
X447569Y422486D01*
X447444Y422389D01*
X447292Y422305D01*
X447125Y422208D01*
X446750Y422055D01*
X446556Y421986D01*
X446334Y421945D01*
X446112Y421917D01*
X445876Y421903D01*
X445765D01*
X445681Y421917D01*
X445570Y421931D01*
X445459Y421945D01*
X445321Y421972D01*
X445182Y422000D01*
X444849Y422097D01*
X444682Y422167D01*
X444502Y422236D01*
X444335Y422333D01*
X444155Y422430D01*
X443974Y422555D01*
X443808Y422694D01*
X443794Y422708D01*
X443766Y422736D01*
X443724Y422777D01*
X443669Y422847D01*
X443599Y422930D01*
X443530Y423027D01*
X443447Y423152D01*
X443364Y423277D01*
X443280Y423430D01*
X443197Y423610D01*
X443127Y423791D01*
X443058Y423999D01*
X443003Y424221D01*
X442961Y424457D01*
X442933Y424720D01*
X442919Y424984D01*
Y424998D01*
Y425054D01*
Y425123D01*
X442933Y425234D01*
X442947Y425359D01*
X442975Y425498D01*
X443003Y425664D01*
X443030Y425845D01*
X443141Y426220D01*
X443211Y426414D01*
X443308Y426608D01*
X443405Y426802D01*
X443530Y426997D01*
X443669Y427177D01*
X443835Y427344D01*
X443849Y427358D01*
X443877Y427385D01*
X443933Y427427D01*
X444002Y427483D01*
X444085Y427538D01*
X444182Y427621D01*
X444307Y427691D01*
X444432Y427774D01*
X444738Y427927D01*
X445098Y428066D01*
X445279Y428121D01*
X445487Y428163D01*
X445695Y428191D01*
X445903Y428204D01*
X446028D01*
X446112Y428191D01*
X446209Y428177D01*
X446334Y428149D01*
X446473Y428121D01*
X446625Y428079D01*
X446792Y428024D01*
X446958Y427968D01*
X447139Y427885D01*
X447319Y427788D01*
X447500Y427677D01*
X447680Y427538D01*
X447861Y427399D01*
X448041Y427219D01*
Y429620D01*
X446875D01*
Y430675D01*
X449221D01*
Y423055D01*
D02*
G37*
G36*
X457202D02*
X458285D01*
Y422000D01*
X456022D01*
Y422874D01*
X456008Y422861D01*
X455980Y422833D01*
X455939Y422791D01*
X455869Y422722D01*
X455772Y422652D01*
X455675Y422569D01*
X455550Y422486D01*
X455425Y422389D01*
X455272Y422305D01*
X455106Y422208D01*
X454731Y422055D01*
X454537Y421986D01*
X454315Y421945D01*
X454093Y421917D01*
X453857Y421903D01*
X453746D01*
X453662Y421917D01*
X453551Y421931D01*
X453440Y421945D01*
X453302Y421972D01*
X453163Y422000D01*
X452830Y422097D01*
X452663Y422167D01*
X452483Y422236D01*
X452316Y422333D01*
X452136Y422430D01*
X451955Y422555D01*
X451789Y422694D01*
X451775Y422708D01*
X451747Y422736D01*
X451705Y422777D01*
X451650Y422847D01*
X451580Y422930D01*
X451511Y423027D01*
X451428Y423152D01*
X451344Y423277D01*
X451261Y423430D01*
X451178Y423610D01*
X451109Y423791D01*
X451039Y423999D01*
X450984Y424221D01*
X450942Y424457D01*
X450914Y424720D01*
X450900Y424984D01*
Y424998D01*
Y425054D01*
Y425123D01*
X450914Y425234D01*
X450928Y425359D01*
X450956Y425498D01*
X450984Y425664D01*
X451011Y425845D01*
X451122Y426220D01*
X451192Y426414D01*
X451289Y426608D01*
X451386Y426802D01*
X451511Y426997D01*
X451650Y427177D01*
X451816Y427344D01*
X451830Y427358D01*
X451858Y427385D01*
X451914Y427427D01*
X451983Y427483D01*
X452066Y427538D01*
X452163Y427621D01*
X452288Y427691D01*
X452413Y427774D01*
X452719Y427927D01*
X453080Y428066D01*
X453260Y428121D01*
X453468Y428163D01*
X453676Y428191D01*
X453885Y428204D01*
X454009D01*
X454093Y428191D01*
X454190Y428177D01*
X454315Y428149D01*
X454454Y428121D01*
X454606Y428079D01*
X454773Y428024D01*
X454939Y427968D01*
X455120Y427885D01*
X455300Y427788D01*
X455481Y427677D01*
X455661Y427538D01*
X455842Y427399D01*
X456022Y427219D01*
Y429620D01*
X454856D01*
Y430675D01*
X457202D01*
Y423055D01*
D02*
G37*
G36*
X423237Y414125D02*
X423301Y414116D01*
X423385Y414107D01*
X423477Y414088D01*
X423579Y414061D01*
X423810Y413987D01*
X423930Y413940D01*
X424051Y413885D01*
X424180Y413820D01*
X424309Y413737D01*
X424439Y413645D01*
X424559Y413543D01*
X424569Y413533D01*
X424587Y413515D01*
X424624Y413478D01*
X424661Y413432D01*
X424717Y413376D01*
X424772Y413302D01*
X424837Y413210D01*
X424892Y413108D01*
X424957Y412997D01*
X425022Y412867D01*
X425077Y412719D01*
X425133Y412571D01*
X425179Y412396D01*
X425216Y412220D01*
X425244Y412026D01*
X425253Y411813D01*
X421868D01*
Y411804D01*
Y411785D01*
X421877Y411758D01*
X421886Y411721D01*
X421914Y411619D01*
X421951Y411489D01*
X422006Y411341D01*
X422080Y411193D01*
X422182Y411045D01*
X422302Y410907D01*
X422321Y410888D01*
X422367Y410851D01*
X422450Y410795D01*
X422561Y410740D01*
X422691Y410675D01*
X422857Y410620D01*
X423033Y410583D01*
X423237Y410564D01*
X423274D01*
X423320Y410573D01*
X423375D01*
X423440Y410583D01*
X423523Y410601D01*
X423717Y410647D01*
X423819Y410684D01*
X423921Y410731D01*
X424032Y410777D01*
X424143Y410842D01*
X424254Y410925D01*
X424356Y411008D01*
X424458Y411110D01*
X424550Y411230D01*
X425253Y410916D01*
Y410907D01*
X425235Y410897D01*
X425216Y410870D01*
X425188Y410833D01*
X425114Y410740D01*
X425012Y410620D01*
X424883Y410490D01*
X424735Y410361D01*
X424559Y410241D01*
X424365Y410129D01*
X424356D01*
X424337Y410120D01*
X424309Y410111D01*
X424272Y410092D01*
X424217Y410074D01*
X424161Y410046D01*
X424023Y410009D01*
X423847Y409963D01*
X423653Y409917D01*
X423449Y409889D01*
X423227Y409880D01*
X423135D01*
X423070Y409889D01*
X422996Y409898D01*
X422903Y409907D01*
X422792Y409926D01*
X422682Y409954D01*
X422432Y410018D01*
X422302Y410065D01*
X422173Y410120D01*
X422034Y410185D01*
X421905Y410268D01*
X421775Y410352D01*
X421645Y410453D01*
X421636Y410463D01*
X421618Y410481D01*
X421590Y410509D01*
X421544Y410555D01*
X421497Y410620D01*
X421442Y410684D01*
X421386Y410768D01*
X421322Y410860D01*
X421266Y410971D01*
X421202Y411082D01*
X421146Y411212D01*
X421100Y411350D01*
X421054Y411498D01*
X421026Y411656D01*
X421007Y411832D01*
X420998Y412007D01*
Y412016D01*
Y412044D01*
Y412100D01*
X421007Y412164D01*
X421017Y412239D01*
X421035Y412331D01*
X421054Y412433D01*
X421081Y412544D01*
X421155Y412784D01*
X421202Y412914D01*
X421266Y413043D01*
X421340Y413173D01*
X421423Y413293D01*
X421516Y413413D01*
X421627Y413533D01*
X421636Y413543D01*
X421655Y413561D01*
X421692Y413589D01*
X421738Y413626D01*
X421803Y413672D01*
X421877Y413728D01*
X421960Y413774D01*
X422052Y413839D01*
X422154Y413894D01*
X422265Y413940D01*
X422515Y414042D01*
X422654Y414079D01*
X422792Y414107D01*
X422940Y414125D01*
X423098Y414135D01*
X423181D01*
X423237Y414125D01*
D02*
G37*
G36*
X388669Y415865D02*
X388734D01*
X388817Y415846D01*
X388910Y415828D01*
X389012Y415809D01*
X389123Y415772D01*
X389243Y415726D01*
X389363Y415680D01*
X389483Y415605D01*
X389603Y415531D01*
X389724Y415439D01*
X389844Y415328D01*
X389955Y415208D01*
X390057Y415060D01*
X390066Y415051D01*
X390075Y415023D01*
X390103Y414977D01*
X390140Y414912D01*
X390177Y414828D01*
X390223Y414736D01*
X390269Y414616D01*
X390325Y414486D01*
X390371Y414338D01*
X390418Y414172D01*
X390464Y413996D01*
X390501Y413802D01*
X390538Y413598D01*
X390565Y413376D01*
X390575Y413136D01*
X390584Y412886D01*
Y412867D01*
Y412821D01*
Y412747D01*
X390575Y412655D01*
X390565Y412535D01*
X390556Y412396D01*
X390538Y412239D01*
X390519Y412081D01*
X390455Y411721D01*
X390408Y411536D01*
X390353Y411360D01*
X390288Y411175D01*
X390223Y410999D01*
X390131Y410842D01*
X390038Y410684D01*
X390029Y410675D01*
X390010Y410647D01*
X389983Y410610D01*
X389936Y410564D01*
X389890Y410509D01*
X389816Y410435D01*
X389742Y410370D01*
X389659Y410296D01*
X389557Y410222D01*
X389446Y410157D01*
X389326Y410092D01*
X389196Y410028D01*
X389058Y409981D01*
X388910Y409944D01*
X388743Y409917D01*
X388577Y409907D01*
X388530D01*
X388484Y409917D01*
X388420D01*
X388336Y409935D01*
X388244Y409954D01*
X388133Y409972D01*
X388022Y410009D01*
X387901Y410055D01*
X387781Y410102D01*
X387652Y410167D01*
X387531Y410250D01*
X387411Y410342D01*
X387291Y410444D01*
X387180Y410573D01*
X387078Y410712D01*
X387069Y410721D01*
X387060Y410749D01*
X387032Y410795D01*
X386995Y410860D01*
X386958Y410944D01*
X386921Y411045D01*
X386875Y411156D01*
X386828Y411286D01*
X386773Y411434D01*
X386727Y411600D01*
X386690Y411776D01*
X386653Y411970D01*
X386616Y412183D01*
X386588Y412405D01*
X386579Y412636D01*
X386569Y412886D01*
Y412905D01*
Y412951D01*
Y413025D01*
X386579Y413117D01*
X386588Y413237D01*
X386597Y413376D01*
X386616Y413533D01*
X386634Y413700D01*
X386699Y414051D01*
X386745Y414236D01*
X386801Y414412D01*
X386856Y414597D01*
X386930Y414773D01*
X387014Y414939D01*
X387106Y415088D01*
X387115Y415097D01*
X387134Y415125D01*
X387161Y415162D01*
X387208Y415208D01*
X387263Y415273D01*
X387328Y415337D01*
X387402Y415411D01*
X387494Y415485D01*
X387587Y415550D01*
X387698Y415624D01*
X387818Y415689D01*
X387957Y415754D01*
X388096Y415800D01*
X388244Y415837D01*
X388410Y415865D01*
X388577Y415874D01*
X388623D01*
X388669Y415865D01*
D02*
G37*
G36*
X397901D02*
X397966D01*
X398049Y415846D01*
X398141Y415828D01*
X398243Y415809D01*
X398354Y415772D01*
X398474Y415726D01*
X398594Y415680D01*
X398715Y415605D01*
X398835Y415531D01*
X398955Y415439D01*
X399076Y415328D01*
X399186Y415208D01*
X399288Y415060D01*
X399297Y415051D01*
X399307Y415023D01*
X399335Y414977D01*
X399372Y414912D01*
X399409Y414828D01*
X399455Y414736D01*
X399501Y414616D01*
X399556Y414486D01*
X399603Y414338D01*
X399649Y414172D01*
X399695Y413996D01*
X399732Y413802D01*
X399769Y413598D01*
X399797Y413376D01*
X399806Y413136D01*
X399816Y412886D01*
Y412867D01*
Y412821D01*
Y412747D01*
X399806Y412655D01*
X399797Y412535D01*
X399788Y412396D01*
X399769Y412239D01*
X399751Y412081D01*
X399686Y411721D01*
X399640Y411536D01*
X399584Y411360D01*
X399519Y411175D01*
X399455Y410999D01*
X399362Y410842D01*
X399270Y410684D01*
X399260Y410675D01*
X399242Y410647D01*
X399214Y410610D01*
X399168Y410564D01*
X399122Y410509D01*
X399048Y410435D01*
X398974Y410370D01*
X398890Y410296D01*
X398789Y410222D01*
X398678Y410157D01*
X398557Y410092D01*
X398428Y410028D01*
X398289Y409981D01*
X398141Y409944D01*
X397975Y409917D01*
X397808Y409907D01*
X397762D01*
X397716Y409917D01*
X397651D01*
X397568Y409935D01*
X397475Y409954D01*
X397364Y409972D01*
X397253Y410009D01*
X397133Y410055D01*
X397013Y410102D01*
X396883Y410167D01*
X396763Y410250D01*
X396643Y410342D01*
X396522Y410444D01*
X396411Y410573D01*
X396310Y410712D01*
X396301Y410721D01*
X396291Y410749D01*
X396264Y410795D01*
X396227Y410860D01*
X396189Y410944D01*
X396152Y411045D01*
X396106Y411156D01*
X396060Y411286D01*
X396005Y411434D01*
X395958Y411600D01*
X395921Y411776D01*
X395884Y411970D01*
X395847Y412183D01*
X395819Y412405D01*
X395810Y412636D01*
X395801Y412886D01*
Y412905D01*
Y412951D01*
Y413025D01*
X395810Y413117D01*
X395819Y413237D01*
X395829Y413376D01*
X395847Y413533D01*
X395866Y413700D01*
X395931Y414051D01*
X395977Y414236D01*
X396032Y414412D01*
X396088Y414597D01*
X396162Y414773D01*
X396245Y414939D01*
X396338Y415088D01*
X396347Y415097D01*
X396365Y415125D01*
X396393Y415162D01*
X396439Y415208D01*
X396495Y415273D01*
X396560Y415337D01*
X396634Y415411D01*
X396726Y415485D01*
X396818Y415550D01*
X396930Y415624D01*
X397050Y415689D01*
X397188Y415754D01*
X397327Y415800D01*
X397475Y415837D01*
X397642Y415865D01*
X397808Y415874D01*
X397854D01*
X397901Y415865D01*
D02*
G37*
G36*
X442597Y414125D02*
X442671Y414116D01*
X442754Y414107D01*
X442856Y414088D01*
X442957Y414061D01*
X443198Y413987D01*
X443318Y413940D01*
X443448Y413885D01*
X443568Y413820D01*
X443698Y413737D01*
X443818Y413645D01*
X443938Y413543D01*
X443947Y413533D01*
X443966Y413515D01*
X443994Y413478D01*
X444040Y413432D01*
X444086Y413376D01*
X444141Y413302D01*
X444197Y413219D01*
X444252Y413127D01*
X444308Y413025D01*
X444373Y412905D01*
X444419Y412784D01*
X444465Y412645D01*
X444512Y412498D01*
X444539Y412340D01*
X444558Y412183D01*
X444567Y412007D01*
Y411998D01*
Y411961D01*
Y411915D01*
X444558Y411850D01*
X444549Y411767D01*
X444530Y411674D01*
X444512Y411573D01*
X444493Y411461D01*
X444410Y411212D01*
X444363Y411082D01*
X444299Y410953D01*
X444234Y410823D01*
X444141Y410703D01*
X444049Y410573D01*
X443938Y410463D01*
X443929Y410453D01*
X443910Y410435D01*
X443873Y410407D01*
X443827Y410370D01*
X443772Y410324D01*
X443698Y410278D01*
X443614Y410222D01*
X443522Y410176D01*
X443420Y410120D01*
X443300Y410065D01*
X443050Y409972D01*
X442911Y409935D01*
X442763Y409907D01*
X442606Y409889D01*
X442449Y409880D01*
X442366D01*
X442301Y409889D01*
X442227Y409898D01*
X442134Y409907D01*
X442032Y409926D01*
X441922Y409954D01*
X441690Y410028D01*
X441561Y410074D01*
X441431Y410129D01*
X441311Y410194D01*
X441182Y410278D01*
X441061Y410370D01*
X440941Y410472D01*
X440932Y410481D01*
X440913Y410499D01*
X440885Y410536D01*
X440848Y410583D01*
X440802Y410638D01*
X440747Y410712D01*
X440700Y410795D01*
X440645Y410888D01*
X440580Y410999D01*
X440534Y411110D01*
X440479Y411239D01*
X440432Y411369D01*
X440395Y411517D01*
X440368Y411674D01*
X440349Y411841D01*
X440340Y412007D01*
Y412016D01*
Y412044D01*
Y412100D01*
X440349Y412164D01*
X440358Y412239D01*
X440377Y412331D01*
X440395Y412433D01*
X440414Y412544D01*
X440488Y412784D01*
X440534Y412914D01*
X440599Y413043D01*
X440663Y413173D01*
X440747Y413293D01*
X440839Y413413D01*
X440950Y413533D01*
X440960Y413543D01*
X440978Y413561D01*
X441015Y413589D01*
X441061Y413626D01*
X441117Y413672D01*
X441191Y413728D01*
X441274Y413774D01*
X441366Y413839D01*
X441468Y413894D01*
X441588Y413940D01*
X441709Y413996D01*
X441838Y414042D01*
X441977Y414079D01*
X442134Y414107D01*
X442282Y414125D01*
X442449Y414135D01*
X442532D01*
X442597Y414125D01*
D02*
G37*
G36*
X458729D02*
X458803Y414116D01*
X458886Y414107D01*
X458988Y414088D01*
X459090Y414061D01*
X459330Y413987D01*
X459450Y413940D01*
X459580Y413885D01*
X459700Y413820D01*
X459830Y413737D01*
X459950Y413645D01*
X460070Y413543D01*
X460079Y413533D01*
X460098Y413515D01*
X460125Y413478D01*
X460172Y413432D01*
X460218Y413376D01*
X460274Y413302D01*
X460329Y413219D01*
X460385Y413127D01*
X460440Y413025D01*
X460505Y412905D01*
X460551Y412784D01*
X460597Y412645D01*
X460643Y412498D01*
X460671Y412340D01*
X460690Y412183D01*
X460699Y412007D01*
Y411998D01*
Y411961D01*
Y411915D01*
X460690Y411850D01*
X460680Y411767D01*
X460662Y411674D01*
X460643Y411573D01*
X460625Y411461D01*
X460542Y411212D01*
X460496Y411082D01*
X460431Y410953D01*
X460366Y410823D01*
X460274Y410703D01*
X460181Y410573D01*
X460070Y410463D01*
X460061Y410453D01*
X460042Y410435D01*
X460005Y410407D01*
X459959Y410370D01*
X459903Y410324D01*
X459830Y410278D01*
X459746Y410222D01*
X459654Y410176D01*
X459552Y410120D01*
X459432Y410065D01*
X459182Y409972D01*
X459043Y409935D01*
X458895Y409907D01*
X458738Y409889D01*
X458581Y409880D01*
X458497D01*
X458433Y409889D01*
X458359Y409898D01*
X458266Y409907D01*
X458165Y409926D01*
X458053Y409954D01*
X457822Y410028D01*
X457693Y410074D01*
X457563Y410129D01*
X457443Y410194D01*
X457313Y410278D01*
X457193Y410370D01*
X457073Y410472D01*
X457064Y410481D01*
X457045Y410499D01*
X457018Y410536D01*
X456981Y410583D01*
X456934Y410638D01*
X456879Y410712D01*
X456833Y410795D01*
X456777Y410888D01*
X456712Y410999D01*
X456666Y411110D01*
X456610Y411239D01*
X456564Y411369D01*
X456527Y411517D01*
X456499Y411674D01*
X456481Y411841D01*
X456472Y412007D01*
Y412016D01*
Y412044D01*
Y412100D01*
X456481Y412164D01*
X456490Y412239D01*
X456509Y412331D01*
X456527Y412433D01*
X456546Y412544D01*
X456620Y412784D01*
X456666Y412914D01*
X456731Y413043D01*
X456796Y413173D01*
X456879Y413293D01*
X456971Y413413D01*
X457082Y413533D01*
X457092Y413543D01*
X457110Y413561D01*
X457147Y413589D01*
X457193Y413626D01*
X457249Y413672D01*
X457323Y413728D01*
X457406Y413774D01*
X457499Y413839D01*
X457600Y413894D01*
X457721Y413940D01*
X457841Y413996D01*
X457970Y414042D01*
X458109Y414079D01*
X458266Y414107D01*
X458414Y414125D01*
X458581Y414135D01*
X458664D01*
X458729Y414125D01*
D02*
G37*
G36*
X413591Y428038D02*
X414701D01*
Y426983D01*
X413591D01*
Y424040D01*
Y424026D01*
Y424013D01*
Y423929D01*
Y423804D01*
X413605Y423666D01*
Y423513D01*
X413619Y423374D01*
X413632Y423249D01*
X413660Y423166D01*
X413674Y423138D01*
X413702Y423124D01*
X413744Y423097D01*
X413799Y423069D01*
X413855Y423041D01*
X413952Y423027D01*
X414049Y423013D01*
X414104D01*
X414174Y423027D01*
X414257D01*
X414354Y423041D01*
X414465Y423069D01*
X414701Y423138D01*
Y422055D01*
X414687D01*
X414618Y422028D01*
X414535Y422014D01*
X414410Y421986D01*
X414271Y421958D01*
X414118Y421931D01*
X413952Y421917D01*
X413785Y421903D01*
X413702D01*
X413591Y421917D01*
X413480Y421931D01*
X413341Y421958D01*
X413188Y422000D01*
X413050Y422055D01*
X412911Y422139D01*
X412897Y422153D01*
X412855Y422180D01*
X412800Y422236D01*
X412730Y422305D01*
X412661Y422389D01*
X412592Y422486D01*
X412536Y422611D01*
X412494Y422736D01*
Y422750D01*
X412480Y422805D01*
X412467Y422902D01*
X412453Y423027D01*
X412439Y423194D01*
X412425Y423416D01*
X412411Y423679D01*
Y423985D01*
Y426983D01*
X411620D01*
Y428038D01*
X412411D01*
Y428968D01*
X413591Y430050D01*
Y428038D01*
D02*
G37*
G36*
X410024Y423055D02*
X410954D01*
Y422000D01*
X407914D01*
Y423055D01*
X408844D01*
Y426983D01*
X407914D01*
Y428038D01*
X410024D01*
Y423055D01*
D02*
G37*
G36*
X396741Y428191D02*
X396852Y428177D01*
X396976Y428163D01*
X397129Y428135D01*
X397282Y428093D01*
X397643Y427982D01*
X397823Y427913D01*
X398018Y427830D01*
X398198Y427732D01*
X398392Y427607D01*
X398573Y427469D01*
X398753Y427316D01*
X398767Y427302D01*
X398795Y427274D01*
X398836Y427219D01*
X398906Y427149D01*
X398975Y427066D01*
X399059Y426955D01*
X399142Y426830D01*
X399225Y426691D01*
X399308Y426539D01*
X399406Y426358D01*
X399475Y426178D01*
X399544Y425970D01*
X399614Y425748D01*
X399655Y425512D01*
X399683Y425276D01*
X399697Y425012D01*
Y424998D01*
Y424943D01*
Y424873D01*
X399683Y424776D01*
X399669Y424651D01*
X399641Y424512D01*
X399614Y424360D01*
X399586Y424193D01*
X399461Y423818D01*
X399392Y423624D01*
X399294Y423430D01*
X399197Y423235D01*
X399059Y423055D01*
X398920Y422861D01*
X398753Y422694D01*
X398739Y422680D01*
X398711Y422652D01*
X398656Y422611D01*
X398587Y422555D01*
X398503Y422486D01*
X398392Y422416D01*
X398267Y422333D01*
X398129Y422264D01*
X397976Y422180D01*
X397795Y422097D01*
X397421Y421958D01*
X397213Y421903D01*
X396990Y421861D01*
X396754Y421833D01*
X396518Y421820D01*
X396394D01*
X396296Y421833D01*
X396185Y421847D01*
X396047Y421861D01*
X395894Y421889D01*
X395727Y421931D01*
X395380Y422042D01*
X395186Y422111D01*
X394992Y422194D01*
X394811Y422292D01*
X394617Y422416D01*
X394437Y422555D01*
X394256Y422708D01*
X394242Y422722D01*
X394214Y422750D01*
X394173Y422805D01*
X394117Y422874D01*
X394048Y422958D01*
X393965Y423069D01*
X393895Y423194D01*
X393812Y423333D01*
X393715Y423499D01*
X393645Y423666D01*
X393562Y423860D01*
X393493Y424054D01*
X393437Y424276D01*
X393395Y424512D01*
X393368Y424762D01*
X393354Y425012D01*
Y425026D01*
Y425068D01*
Y425151D01*
X393368Y425248D01*
X393382Y425359D01*
X393409Y425498D01*
X393437Y425650D01*
X393465Y425817D01*
X393576Y426178D01*
X393645Y426372D01*
X393742Y426567D01*
X393840Y426761D01*
X393965Y426941D01*
X394103Y427122D01*
X394270Y427302D01*
X394284Y427316D01*
X394312Y427344D01*
X394367Y427385D01*
X394437Y427441D01*
X394520Y427510D01*
X394631Y427594D01*
X394756Y427663D01*
X394895Y427760D01*
X395047Y427844D01*
X395228Y427913D01*
X395408Y427996D01*
X395602Y428066D01*
X395811Y428121D01*
X396047Y428163D01*
X396269Y428191D01*
X396518Y428204D01*
X396643D01*
X396741Y428191D01*
D02*
G37*
G36*
X418962D02*
X419073Y428177D01*
X419198Y428163D01*
X419351Y428135D01*
X419504Y428093D01*
X419865Y427982D01*
X420045Y427913D01*
X420239Y427830D01*
X420420Y427732D01*
X420614Y427607D01*
X420795Y427469D01*
X420975Y427316D01*
X420989Y427302D01*
X421017Y427274D01*
X421058Y427219D01*
X421128Y427149D01*
X421197Y427066D01*
X421280Y426955D01*
X421364Y426830D01*
X421447Y426691D01*
X421530Y426539D01*
X421627Y426358D01*
X421697Y426178D01*
X421766Y425970D01*
X421836Y425748D01*
X421877Y425512D01*
X421905Y425276D01*
X421919Y425012D01*
Y424998D01*
Y424943D01*
Y424873D01*
X421905Y424776D01*
X421891Y424651D01*
X421863Y424512D01*
X421836Y424360D01*
X421808Y424193D01*
X421683Y423818D01*
X421614Y423624D01*
X421516Y423430D01*
X421419Y423235D01*
X421280Y423055D01*
X421142Y422861D01*
X420975Y422694D01*
X420961Y422680D01*
X420933Y422652D01*
X420878Y422611D01*
X420809Y422555D01*
X420725Y422486D01*
X420614Y422416D01*
X420489Y422333D01*
X420350Y422264D01*
X420198Y422180D01*
X420017Y422097D01*
X419643Y421958D01*
X419434Y421903D01*
X419212Y421861D01*
X418976Y421833D01*
X418740Y421820D01*
X418615D01*
X418518Y421833D01*
X418407Y421847D01*
X418268Y421861D01*
X418116Y421889D01*
X417949Y421931D01*
X417602Y422042D01*
X417408Y422111D01*
X417214Y422194D01*
X417033Y422292D01*
X416839Y422416D01*
X416658Y422555D01*
X416478Y422708D01*
X416464Y422722D01*
X416436Y422750D01*
X416395Y422805D01*
X416339Y422874D01*
X416270Y422958D01*
X416186Y423069D01*
X416117Y423194D01*
X416034Y423333D01*
X415937Y423499D01*
X415867Y423666D01*
X415784Y423860D01*
X415715Y424054D01*
X415659Y424276D01*
X415617Y424512D01*
X415590Y424762D01*
X415576Y425012D01*
Y425026D01*
Y425068D01*
Y425151D01*
X415590Y425248D01*
X415603Y425359D01*
X415631Y425498D01*
X415659Y425650D01*
X415687Y425817D01*
X415798Y426178D01*
X415867Y426372D01*
X415964Y426567D01*
X416061Y426761D01*
X416186Y426941D01*
X416325Y427122D01*
X416492Y427302D01*
X416506Y427316D01*
X416533Y427344D01*
X416589Y427385D01*
X416658Y427441D01*
X416742Y427510D01*
X416853Y427594D01*
X416978Y427663D01*
X417116Y427760D01*
X417269Y427844D01*
X417450Y427913D01*
X417630Y427996D01*
X417824Y428066D01*
X418033Y428121D01*
X418268Y428163D01*
X418491Y428191D01*
X418740Y428204D01*
X418865D01*
X418962Y428191D01*
D02*
G37*
G36*
X431316Y430661D02*
X431566D01*
X431857Y430633D01*
X432162Y430606D01*
X432440Y430578D01*
X432565Y430550D01*
X432690Y430522D01*
X432718D01*
X432787Y430495D01*
X432898Y430453D01*
X433051Y430383D01*
X433203Y430286D01*
X433384Y430161D01*
X433564Y429995D01*
X433745Y429801D01*
X433758Y429773D01*
X433814Y429703D01*
X433883Y429578D01*
X433981Y429412D01*
X434064Y429204D01*
X434133Y428982D01*
X434189Y428718D01*
X434203Y428426D01*
Y428399D01*
Y428329D01*
X434189Y428218D01*
X434175Y428066D01*
X434133Y427899D01*
X434092Y427719D01*
X434022Y427524D01*
X433925Y427344D01*
X433911Y427316D01*
X433870Y427260D01*
X433814Y427177D01*
X433731Y427066D01*
X433620Y426955D01*
X433481Y426830D01*
X433314Y426705D01*
X433134Y426608D01*
X433148D01*
X433162Y426594D01*
X433259Y426567D01*
X433384Y426497D01*
X433550Y426414D01*
X433717Y426289D01*
X433911Y426150D01*
X434092Y425984D01*
X434244Y425775D01*
X434258Y425748D01*
X434300Y425678D01*
X434369Y425553D01*
X434439Y425401D01*
X434508Y425206D01*
X434577Y424984D01*
X434619Y424734D01*
X434633Y424457D01*
Y424429D01*
Y424346D01*
X434619Y424221D01*
X434591Y424068D01*
X434564Y423888D01*
X434508Y423693D01*
X434439Y423499D01*
X434341Y423291D01*
X434328Y423263D01*
X434286Y423208D01*
X434230Y423110D01*
X434133Y422986D01*
X434022Y422861D01*
X433897Y422722D01*
X433731Y422597D01*
X433564Y422472D01*
X433536Y422458D01*
X433481Y422430D01*
X433384Y422375D01*
X433245Y422319D01*
X433092Y422264D01*
X432912Y422194D01*
X432718Y422139D01*
X432509Y422097D01*
X432482D01*
X432412Y422083D01*
X432273Y422069D01*
X432107Y422055D01*
X431885Y422028D01*
X431607Y422014D01*
X431302Y422000D01*
X428012D01*
Y423083D01*
X429081D01*
Y429592D01*
X428012D01*
Y430675D01*
X431191D01*
X431316Y430661D01*
D02*
G37*
G36*
X392563Y429592D02*
X391522D01*
Y423083D01*
X392563D01*
Y422000D01*
X389301D01*
Y423083D01*
X390342D01*
Y429592D01*
X387330Y421917D01*
X387080D01*
X384110Y429592D01*
Y423083D01*
X385068D01*
Y422000D01*
X382000D01*
Y423083D01*
X383041D01*
Y429592D01*
X382000D01*
Y430675D01*
X384956D01*
X387247Y424720D01*
X389565Y430675D01*
X392563D01*
Y429592D01*
D02*
G37*
G36*
X427554Y426941D02*
X427152D01*
X426999Y426927D01*
X426805Y426913D01*
X426583Y426900D01*
X426361Y426858D01*
X426138Y426816D01*
X425958Y426747D01*
X425944Y426733D01*
X425889Y426705D01*
X425805Y426664D01*
X425708Y426594D01*
X425597Y426511D01*
X425486Y426400D01*
X425389Y426261D01*
X425292Y426095D01*
X425278Y426067D01*
X425264Y425997D01*
X425222Y425886D01*
X425208Y425803D01*
X425195Y425706D01*
X425167Y425595D01*
X425153Y425470D01*
X425139Y425331D01*
X425111Y425165D01*
X425097Y424998D01*
Y424804D01*
X425083Y424596D01*
Y424373D01*
Y423055D01*
X426402D01*
Y422000D01*
X422682D01*
Y423055D01*
X423904D01*
Y426983D01*
X422682D01*
Y428038D01*
X424848D01*
Y426678D01*
X424861Y426705D01*
X424889Y426761D01*
X424931Y426858D01*
X424986Y426983D01*
X425070Y427122D01*
X425153Y427274D01*
X425264Y427413D01*
X425389Y427552D01*
X425403Y427566D01*
X425458Y427607D01*
X425528Y427663D01*
X425625Y427746D01*
X425736Y427816D01*
X425861Y427899D01*
X426000Y427954D01*
X426138Y428010D01*
X426152D01*
X426208Y428024D01*
X426305Y428052D01*
X426430Y428079D01*
X426583Y428093D01*
X426777Y428121D01*
X426985Y428135D01*
X427554D01*
Y426941D01*
D02*
G37*
G36*
X441198Y423055D02*
X442239D01*
Y422000D01*
X440018D01*
Y422680D01*
X440004Y422666D01*
X439977Y422652D01*
X439921Y422611D01*
X439838Y422555D01*
X439741Y422500D01*
X439630Y422430D01*
X439505Y422361D01*
X439366Y422292D01*
X439061Y422153D01*
X438728Y422028D01*
X438367Y421931D01*
X438186Y421917D01*
X438006Y421903D01*
X437909D01*
X437798Y421917D01*
X437659Y421931D01*
X437506Y421972D01*
X437340Y422014D01*
X437159Y422083D01*
X437006Y422167D01*
X436993Y422180D01*
X436937Y422208D01*
X436868Y422278D01*
X436784Y422347D01*
X436701Y422444D01*
X436618Y422569D01*
X436535Y422694D01*
X436479Y422847D01*
Y422861D01*
X436465Y422930D01*
X436437Y423027D01*
X436423Y423180D01*
X436396Y423360D01*
X436368Y423596D01*
X436354Y423874D01*
Y424207D01*
Y426983D01*
X435494D01*
Y428038D01*
X437534D01*
Y424346D01*
Y424332D01*
Y424318D01*
Y424235D01*
Y424124D01*
Y423985D01*
X437548Y423832D01*
Y423679D01*
Y423555D01*
X437562Y423444D01*
Y423430D01*
X437575Y423402D01*
X437589Y423360D01*
X437603Y423319D01*
X437673Y423194D01*
X437784Y423069D01*
X437798D01*
X437812Y423041D01*
X437853Y423027D01*
X437909Y422999D01*
X438047Y422958D01*
X438242Y422930D01*
X438325D01*
X438381Y422944D01*
X438464Y422958D01*
X438561Y422972D01*
X438783Y423027D01*
X439047Y423124D01*
X439338Y423263D01*
X439505Y423346D01*
X439671Y423457D01*
X439838Y423568D01*
X440018Y423707D01*
Y426983D01*
X438950D01*
Y428038D01*
X441198D01*
Y423055D01*
D02*
G37*
G36*
X465405Y426983D02*
X464503D01*
X461518Y419293D01*
X459520D01*
Y420334D01*
X460700D01*
X461421Y422097D01*
X459437Y426983D01*
X458437D01*
Y428038D01*
X461421D01*
Y426983D01*
X460700D01*
X461990Y423638D01*
X463267Y426983D01*
X462476D01*
Y428038D01*
X465405D01*
Y426983D01*
D02*
G37*
G36*
X420573Y413293D02*
X420304D01*
X420202Y413284D01*
X420073Y413274D01*
X419925Y413265D01*
X419777Y413237D01*
X419629Y413210D01*
X419509Y413164D01*
X419499Y413154D01*
X419462Y413136D01*
X419407Y413108D01*
X419342Y413062D01*
X419268Y413006D01*
X419194Y412932D01*
X419130Y412840D01*
X419065Y412729D01*
X419056Y412710D01*
X419046Y412664D01*
X419019Y412590D01*
X419009Y412535D01*
X419000Y412470D01*
X418982Y412396D01*
X418972Y412313D01*
X418963Y412220D01*
X418945Y412109D01*
X418935Y411998D01*
Y411868D01*
X418926Y411730D01*
Y411582D01*
Y410703D01*
X419805D01*
Y410000D01*
X417326D01*
Y410703D01*
X418140D01*
Y413321D01*
X417326D01*
Y414024D01*
X418769D01*
Y413117D01*
X418778Y413136D01*
X418796Y413173D01*
X418824Y413237D01*
X418861Y413321D01*
X418917Y413413D01*
X418972Y413515D01*
X419046Y413608D01*
X419130Y413700D01*
X419139Y413709D01*
X419176Y413737D01*
X419222Y413774D01*
X419287Y413830D01*
X419361Y413876D01*
X419444Y413931D01*
X419536Y413968D01*
X419629Y414005D01*
X419638D01*
X419675Y414014D01*
X419740Y414033D01*
X419823Y414051D01*
X419925Y414061D01*
X420054Y414079D01*
X420193Y414088D01*
X420573D01*
Y413293D01*
D02*
G37*
G36*
X450570Y414079D02*
X450654Y414070D01*
X450755Y414042D01*
X450866Y414014D01*
X450968Y413968D01*
X451070Y413913D01*
X451079Y413904D01*
X451116Y413885D01*
X451153Y413839D01*
X451208Y413793D01*
X451264Y413728D01*
X451320Y413654D01*
X451375Y413561D01*
X451412Y413469D01*
Y413459D01*
X451431Y413422D01*
X451440Y413358D01*
X451458Y413274D01*
X451477Y413164D01*
X451486Y413034D01*
X451505Y412877D01*
Y412692D01*
Y410703D01*
X452208D01*
Y410000D01*
X450718D01*
Y412553D01*
Y412571D01*
Y412608D01*
Y412673D01*
Y412747D01*
X450700Y412905D01*
X450691Y412979D01*
X450681Y413043D01*
Y413053D01*
X450672Y413071D01*
X450654Y413127D01*
X450607Y413210D01*
X450570Y413247D01*
X450524Y413284D01*
X450515Y413293D01*
X450505Y413302D01*
X450478Y413321D01*
X450441Y413339D01*
X450339Y413367D01*
X450283Y413385D01*
X450163D01*
X450126Y413376D01*
X450080Y413367D01*
X450025Y413358D01*
X449886Y413321D01*
X449710Y413256D01*
X449617Y413219D01*
X449516Y413164D01*
X449414Y413099D01*
X449303Y413034D01*
X449183Y412951D01*
X449062Y412858D01*
Y410703D01*
X449756D01*
Y410000D01*
X448276D01*
Y412627D01*
Y412636D01*
Y412645D01*
Y412692D01*
X448267Y412766D01*
X448258Y412849D01*
X448230Y413034D01*
X448193Y413127D01*
X448156Y413201D01*
X448147Y413210D01*
X448138Y413228D01*
X448110Y413256D01*
X448064Y413293D01*
X448017Y413330D01*
X447943Y413358D01*
X447860Y413376D01*
X447767Y413385D01*
X447721D01*
X447684Y413376D01*
X447647Y413367D01*
X447592Y413358D01*
X447462Y413321D01*
X447296Y413256D01*
X447194Y413219D01*
X447092Y413164D01*
X446990Y413099D01*
X446870Y413034D01*
X446750Y412951D01*
X446621Y412858D01*
Y410703D01*
X447324D01*
Y410000D01*
X445113D01*
Y410703D01*
X445834D01*
Y413321D01*
X445159D01*
Y414024D01*
X446621D01*
Y413515D01*
X446630Y413524D01*
X446648Y413543D01*
X446695Y413570D01*
X446741Y413608D01*
X446805Y413645D01*
X446879Y413700D01*
X446972Y413746D01*
X447064Y413802D01*
X447277Y413904D01*
X447508Y413996D01*
X447638Y414033D01*
X447758Y414061D01*
X447888Y414079D01*
X448017Y414088D01*
X448082D01*
X448128Y414079D01*
X448184Y414070D01*
X448248Y414051D01*
X448396Y414014D01*
X448545Y413931D01*
X448628Y413885D01*
X448702Y413820D01*
X448776Y413756D01*
X448850Y413663D01*
X448905Y413570D01*
X448961Y413459D01*
X448970Y413469D01*
X448998Y413487D01*
X449035Y413515D01*
X449090Y413561D01*
X449164Y413608D01*
X449248Y413663D01*
X449340Y413719D01*
X449442Y413774D01*
X449664Y413894D01*
X449914Y413987D01*
X450043Y414033D01*
X450173Y414061D01*
X450302Y414079D01*
X450431Y414088D01*
X450496D01*
X450570Y414079D01*
D02*
G37*
G36*
X464269D02*
X464353Y414061D01*
X464455Y414042D01*
X464566Y414005D01*
X464667Y413959D01*
X464769Y413894D01*
X464778Y413885D01*
X464815Y413857D01*
X464852Y413820D01*
X464908Y413765D01*
X464963Y413700D01*
X465019Y413626D01*
X465074Y413533D01*
X465111Y413441D01*
Y413432D01*
X465121Y413395D01*
X465139Y413330D01*
X465158Y413247D01*
X465167Y413136D01*
X465185Y412997D01*
X465195Y412840D01*
Y412664D01*
Y410703D01*
X465870D01*
Y410000D01*
X464408D01*
Y412627D01*
Y412636D01*
Y412645D01*
Y412701D01*
X464399Y412775D01*
X464390Y412867D01*
X464371Y412969D01*
X464353Y413071D01*
X464316Y413154D01*
X464269Y413219D01*
X464260Y413228D01*
X464242Y413247D01*
X464214Y413265D01*
X464177Y413293D01*
X464121Y413321D01*
X464066Y413348D01*
X464001Y413358D01*
X463927Y413367D01*
X463872D01*
X463835Y413358D01*
X463789Y413348D01*
X463724Y413339D01*
X463585Y413302D01*
X463409Y413237D01*
X463206Y413145D01*
X463095Y413090D01*
X462984Y413025D01*
X462863Y412942D01*
X462743Y412849D01*
Y410703D01*
X463437D01*
Y410000D01*
X461254D01*
Y410703D01*
X461957D01*
Y413321D01*
X461254D01*
Y414024D01*
X462743D01*
Y413533D01*
X462752Y413543D01*
X462780Y413561D01*
X462817Y413589D01*
X462873Y413617D01*
X462937Y413663D01*
X463021Y413709D01*
X463104Y413756D01*
X463206Y413811D01*
X463418Y413913D01*
X463650Y414005D01*
X463770Y414033D01*
X463890Y414061D01*
X464010Y414079D01*
X464131Y414088D01*
X464195D01*
X464269Y414079D01*
D02*
G37*
G36*
X454206D02*
X454335Y414061D01*
X454492Y414033D01*
X454649Y413987D01*
X454825Y413931D01*
X454983Y413848D01*
Y414024D01*
X455686D01*
Y412692D01*
X454983D01*
Y412932D01*
Y412942D01*
X454964Y412951D01*
X454927Y413006D01*
X454844Y413090D01*
X454742Y413182D01*
X454612Y413274D01*
X454455Y413358D01*
X454261Y413413D01*
X454159Y413422D01*
X454048Y413432D01*
X454002D01*
X453937Y413422D01*
X453872Y413413D01*
X453789Y413395D01*
X453706Y413376D01*
X453623Y413339D01*
X453540Y413293D01*
X453530Y413284D01*
X453512Y413265D01*
X453475Y413237D01*
X453447Y413201D01*
X453410Y413145D01*
X453373Y413080D01*
X453355Y413016D01*
X453345Y412932D01*
Y412923D01*
Y412895D01*
X453355Y412858D01*
X453364Y412803D01*
X453392Y412756D01*
X453419Y412701D01*
X453466Y412655D01*
X453521Y412618D01*
X453530D01*
X453558Y412599D01*
X453614Y412590D01*
X453687Y412562D01*
X453798Y412535D01*
X453937Y412507D01*
X454021Y412488D01*
X454104Y412470D01*
X454206Y412451D01*
X454317Y412433D01*
X454344D01*
X454372Y412424D01*
X454409Y412414D01*
X454520Y412396D01*
X454649Y412368D01*
X454788Y412340D01*
X454936Y412303D01*
X455075Y412266D01*
X455195Y412220D01*
X455204Y412211D01*
X455251Y412201D01*
X455306Y412164D01*
X455371Y412127D01*
X455454Y412072D01*
X455538Y411998D01*
X455621Y411915D01*
X455695Y411813D01*
X455704Y411804D01*
X455723Y411767D01*
X455759Y411702D01*
X455796Y411619D01*
X455833Y411526D01*
X455870Y411415D01*
X455889Y411286D01*
X455898Y411147D01*
Y411138D01*
Y411119D01*
Y411092D01*
X455889Y411055D01*
X455880Y410953D01*
X455843Y410833D01*
X455796Y410684D01*
X455713Y410536D01*
X455612Y410389D01*
X455538Y410324D01*
X455464Y410259D01*
X455454D01*
X455445Y410250D01*
X455417Y410231D01*
X455389Y410213D01*
X455297Y410157D01*
X455167Y410102D01*
X455010Y410037D01*
X454816Y409991D01*
X454594Y409954D01*
X454354Y409935D01*
X454289D01*
X454243Y409944D01*
X454187D01*
X454132Y409954D01*
X453983Y409972D01*
X453817Y410009D01*
X453641Y410055D01*
X453466Y410129D01*
X453308Y410222D01*
Y410000D01*
X452605D01*
Y411378D01*
X453308D01*
Y411239D01*
Y411230D01*
X453317Y411193D01*
X453336Y411138D01*
X453364Y411082D01*
X453401Y411008D01*
X453447Y410925D01*
X453521Y410851D01*
X453604Y410777D01*
X453614Y410768D01*
X453651Y410749D01*
X453706Y410721D01*
X453789Y410694D01*
X453882Y410657D01*
X453983Y410629D01*
X454113Y410610D01*
X454243Y410601D01*
X454307D01*
X454372Y410610D01*
X454464Y410620D01*
X454557Y410629D01*
X454659Y410657D01*
X454761Y410684D01*
X454853Y410731D01*
X454862Y410740D01*
X454890Y410758D01*
X454927Y410786D01*
X454973Y410823D01*
X455010Y410879D01*
X455047Y410944D01*
X455075Y411018D01*
X455084Y411101D01*
Y411110D01*
Y411138D01*
X455075Y411175D01*
X455056Y411230D01*
X455038Y411276D01*
X455001Y411332D01*
X454955Y411387D01*
X454890Y411434D01*
X454881Y411443D01*
X454853Y411452D01*
X454798Y411471D01*
X454724Y411498D01*
X454622Y411536D01*
X454492Y411563D01*
X454335Y411600D01*
X454141Y411637D01*
X454132D01*
X454104Y411647D01*
X454058Y411656D01*
X454002Y411665D01*
X453937Y411684D01*
X453863Y411702D01*
X453678Y411748D01*
X453484Y411813D01*
X453290Y411887D01*
X453105Y411979D01*
X453031Y412035D01*
X452957Y412090D01*
X452938Y412109D01*
X452901Y412146D01*
X452846Y412220D01*
X452781Y412313D01*
X452716Y412424D01*
X452661Y412571D01*
X452624Y412729D01*
X452605Y412905D01*
Y412914D01*
Y412923D01*
Y412951D01*
X452614Y412988D01*
X452624Y413080D01*
X452652Y413201D01*
X452698Y413330D01*
X452763Y413469D01*
X452855Y413608D01*
X452985Y413746D01*
X453003Y413765D01*
X453058Y413802D01*
X453142Y413857D01*
X453262Y413922D01*
X453401Y413977D01*
X453577Y414033D01*
X453780Y414070D01*
X454002Y414088D01*
X454095D01*
X454206Y414079D01*
D02*
G37*
G36*
X411406Y414125D02*
X411517Y414116D01*
X411637Y414107D01*
X411766Y414079D01*
X411896Y414051D01*
X412025Y414005D01*
X412044Y413996D01*
X412081Y413987D01*
X412137Y413959D01*
X412211Y413922D01*
X412377Y413820D01*
X412451Y413765D01*
X412516Y413691D01*
X412525Y413682D01*
X412543Y413654D01*
X412571Y413617D01*
X412608Y413570D01*
X412645Y413506D01*
X412682Y413432D01*
X412710Y413358D01*
X412738Y413274D01*
Y413265D01*
X412747Y413228D01*
X412756Y413182D01*
X412775Y413099D01*
X412784Y413006D01*
X412793Y412877D01*
X412803Y412738D01*
Y412562D01*
Y410703D01*
X413478D01*
Y410000D01*
X412100D01*
Y410490D01*
X412090Y410481D01*
X412072Y410463D01*
X412044Y410435D01*
X411998Y410407D01*
X411942Y410361D01*
X411877Y410315D01*
X411803Y410268D01*
X411720Y410213D01*
X411535Y410111D01*
X411313Y410018D01*
X411193Y409991D01*
X411073Y409963D01*
X410943Y409944D01*
X410814Y409935D01*
X410758D01*
X410721Y409944D01*
X410619Y409954D01*
X410490Y409981D01*
X410342Y410018D01*
X410185Y410083D01*
X410018Y410167D01*
X409861Y410287D01*
X409842Y410305D01*
X409796Y410352D01*
X409731Y410435D01*
X409667Y410536D01*
X409593Y410666D01*
X409528Y410823D01*
X409482Y411008D01*
X409473Y411101D01*
X409463Y411202D01*
Y411212D01*
Y411230D01*
Y411258D01*
X409473Y411295D01*
X409482Y411397D01*
X409519Y411536D01*
X409565Y411674D01*
X409639Y411832D01*
X409750Y411989D01*
X409815Y412063D01*
X409889Y412137D01*
X409898D01*
X409907Y412155D01*
X409935Y412174D01*
X409963Y412192D01*
X410055Y412257D01*
X410185Y412322D01*
X410333Y412387D01*
X410508Y412451D01*
X410712Y412488D01*
X410925Y412507D01*
X410980D01*
X411017Y412498D01*
X411073D01*
X411128Y412488D01*
X411276Y412461D01*
X411443Y412424D01*
X411628Y412359D01*
X411822Y412276D01*
X412025Y412164D01*
Y412562D01*
Y412571D01*
Y412608D01*
Y412664D01*
X412016Y412738D01*
X411998Y412886D01*
X411979Y412969D01*
X411961Y413034D01*
Y413043D01*
X411951Y413062D01*
X411933Y413090D01*
X411905Y413136D01*
X411868Y413182D01*
X411822Y413228D01*
X411766Y413284D01*
X411692Y413330D01*
X411683Y413339D01*
X411656Y413348D01*
X411609Y413376D01*
X411545Y413404D01*
X411461Y413422D01*
X411369Y413450D01*
X411258Y413459D01*
X411128Y413469D01*
X411073D01*
X411036Y413459D01*
X410925Y413441D01*
X410795Y413413D01*
X410656Y413358D01*
X410518Y413274D01*
X410444Y413219D01*
X410379Y413154D01*
X410323Y413080D01*
X410268Y412997D01*
X409519Y413191D01*
X409528Y413201D01*
X409547Y413228D01*
X409574Y413274D01*
X409621Y413339D01*
X409676Y413413D01*
X409741Y413487D01*
X409824Y413580D01*
X409926Y413663D01*
X410037Y413756D01*
X410157Y413839D01*
X410305Y413913D01*
X410462Y413987D01*
X410629Y414051D01*
X410823Y414098D01*
X411026Y414125D01*
X411248Y414135D01*
X411322D01*
X411406Y414125D01*
D02*
G37*
G36*
X417021Y413293D02*
X416752D01*
X416650Y413284D01*
X416521Y413274D01*
X416373Y413265D01*
X416225Y413237D01*
X416077Y413210D01*
X415957Y413164D01*
X415947Y413154D01*
X415910Y413136D01*
X415855Y413108D01*
X415790Y413062D01*
X415716Y413006D01*
X415642Y412932D01*
X415578Y412840D01*
X415513Y412729D01*
X415504Y412710D01*
X415494Y412664D01*
X415466Y412590D01*
X415457Y412535D01*
X415448Y412470D01*
X415429Y412396D01*
X415420Y412313D01*
X415411Y412220D01*
X415392Y412109D01*
X415383Y411998D01*
Y411868D01*
X415374Y411730D01*
Y411582D01*
Y410703D01*
X416253D01*
Y410000D01*
X413774D01*
Y410703D01*
X414588D01*
Y413321D01*
X413774D01*
Y414024D01*
X415217D01*
Y413117D01*
X415226Y413136D01*
X415244Y413173D01*
X415272Y413237D01*
X415309Y413321D01*
X415365Y413413D01*
X415420Y413515D01*
X415494Y413608D01*
X415578Y413700D01*
X415587Y413709D01*
X415624Y413737D01*
X415670Y413774D01*
X415735Y413830D01*
X415809Y413876D01*
X415892Y413931D01*
X415984Y413968D01*
X416077Y414005D01*
X416086D01*
X416123Y414014D01*
X416188Y414033D01*
X416271Y414051D01*
X416373Y414061D01*
X416503Y414079D01*
X416641Y414088D01*
X417021D01*
Y413293D01*
D02*
G37*
G36*
X393267Y415865D02*
X393340D01*
X393424Y415846D01*
X393618Y415818D01*
X393831Y415763D01*
X394053Y415680D01*
X394155Y415633D01*
X394266Y415568D01*
X394358Y415504D01*
X394450Y415420D01*
X394460Y415411D01*
X394469Y415402D01*
X394497Y415374D01*
X394525Y415337D01*
X394599Y415245D01*
X394691Y415115D01*
X394774Y414949D01*
X394848Y414754D01*
X394904Y414542D01*
X394913Y414422D01*
X394922Y414301D01*
Y414292D01*
Y414274D01*
Y414246D01*
Y414209D01*
X394904Y414107D01*
X394885Y413977D01*
X394848Y413830D01*
X394793Y413672D01*
X394719Y413506D01*
X394617Y413358D01*
X394599Y413339D01*
X394552Y413284D01*
X394525Y413247D01*
X394478Y413201D01*
X394423Y413154D01*
X394358Y413090D01*
X394284Y413025D01*
X394201Y412942D01*
X394099Y412867D01*
X393997Y412775D01*
X393877Y412682D01*
X393747Y412581D01*
X393609Y412479D01*
X393451Y412368D01*
X393442Y412359D01*
X393414Y412340D01*
X393377Y412313D01*
X393322Y412266D01*
X393248Y412220D01*
X393174Y412164D01*
X393007Y412026D01*
X392823Y411878D01*
X392637Y411711D01*
X392554Y411628D01*
X392480Y411554D01*
X392415Y411480D01*
X392360Y411406D01*
X392351Y411387D01*
X392323Y411341D01*
X392277Y411276D01*
X392231Y411184D01*
X392175Y411082D01*
X392129Y410971D01*
X392092Y410860D01*
X392064Y410749D01*
X394238D01*
X394275Y412063D01*
X394978D01*
X394922Y410000D01*
X391231D01*
Y410009D01*
Y410028D01*
Y410055D01*
Y410102D01*
X391241Y410157D01*
Y410213D01*
X391259Y410361D01*
X391287Y410536D01*
X391324Y410731D01*
X391370Y410934D01*
X391444Y411138D01*
Y411147D01*
X391454Y411166D01*
X391463Y411193D01*
X391481Y411230D01*
X391537Y411332D01*
X391601Y411461D01*
X391685Y411610D01*
X391787Y411767D01*
X391907Y411933D01*
X392045Y412090D01*
X392055Y412100D01*
X392064Y412109D01*
X392120Y412164D01*
X392157Y412201D01*
X392212Y412248D01*
X392267Y412303D01*
X392341Y412368D01*
X392415Y412433D01*
X392508Y412507D01*
X392600Y412590D01*
X392711Y412682D01*
X392823Y412775D01*
X392952Y412867D01*
X393081Y412969D01*
X393230Y413080D01*
X393239D01*
X393248Y413099D01*
X393276Y413117D01*
X393313Y413145D01*
X393396Y413210D01*
X393507Y413293D01*
X393618Y413395D01*
X393729Y413496D01*
X393831Y413598D01*
X393914Y413691D01*
X393923Y413700D01*
X393942Y413737D01*
X393969Y413783D01*
X394006Y413857D01*
X394043Y413940D01*
X394071Y414042D01*
X394090Y414153D01*
X394099Y414274D01*
Y414283D01*
Y414292D01*
Y414338D01*
X394090Y414412D01*
X394071Y414505D01*
X394034Y414607D01*
X393988Y414717D01*
X393923Y414828D01*
X393840Y414930D01*
X393831Y414939D01*
X393794Y414967D01*
X393738Y415014D01*
X393664Y415060D01*
X393563Y415106D01*
X393442Y415152D01*
X393303Y415180D01*
X393146Y415189D01*
X393063D01*
X392970Y415171D01*
X392860Y415152D01*
X392730Y415115D01*
X392610Y415069D01*
X392490Y414995D01*
X392388Y414893D01*
X392378Y414884D01*
X392351Y414838D01*
X392314Y414764D01*
X392267Y414671D01*
X392221Y414533D01*
X392184Y414375D01*
X392157Y414172D01*
X392147Y413940D01*
Y413931D01*
Y413913D01*
Y413876D01*
Y413839D01*
Y413737D01*
Y413626D01*
X391379D01*
Y413635D01*
Y413654D01*
Y413709D01*
Y413793D01*
Y413867D01*
Y413876D01*
Y413913D01*
Y413959D01*
X391389Y414024D01*
Y414098D01*
X391407Y414190D01*
X391417Y414292D01*
X391435Y414403D01*
X391491Y414643D01*
X391564Y414884D01*
X391675Y415125D01*
X391750Y415236D01*
X391824Y415337D01*
X391833Y415346D01*
X391842Y415365D01*
X391870Y415383D01*
X391907Y415420D01*
X391953Y415457D01*
X392008Y415504D01*
X392073Y415559D01*
X392157Y415605D01*
X392240Y415652D01*
X392341Y415707D01*
X392443Y415754D01*
X392564Y415791D01*
X392684Y415828D01*
X392823Y415855D01*
X392970Y415865D01*
X393128Y415874D01*
X393211D01*
X393267Y415865D01*
D02*
G37*
G36*
X384035D02*
X384109D01*
X384192Y415846D01*
X384386Y415818D01*
X384599Y415763D01*
X384821Y415680D01*
X384923Y415633D01*
X385034Y415568D01*
X385126Y415504D01*
X385219Y415420D01*
X385228Y415411D01*
X385238Y415402D01*
X385265Y415374D01*
X385293Y415337D01*
X385367Y415245D01*
X385459Y415115D01*
X385543Y414949D01*
X385617Y414754D01*
X385672Y414542D01*
X385682Y414422D01*
X385691Y414301D01*
Y414292D01*
Y414274D01*
Y414246D01*
Y414209D01*
X385672Y414107D01*
X385654Y413977D01*
X385617Y413830D01*
X385561Y413672D01*
X385487Y413506D01*
X385385Y413358D01*
X385367Y413339D01*
X385321Y413284D01*
X385293Y413247D01*
X385247Y413201D01*
X385191Y413154D01*
X385126Y413090D01*
X385052Y413025D01*
X384969Y412942D01*
X384868Y412867D01*
X384766Y412775D01*
X384646Y412682D01*
X384516Y412581D01*
X384377Y412479D01*
X384220Y412368D01*
X384211Y412359D01*
X384183Y412340D01*
X384146Y412313D01*
X384090Y412266D01*
X384016Y412220D01*
X383943Y412164D01*
X383776Y412026D01*
X383591Y411878D01*
X383406Y411711D01*
X383323Y411628D01*
X383249Y411554D01*
X383184Y411480D01*
X383128Y411406D01*
X383119Y411387D01*
X383091Y411341D01*
X383045Y411276D01*
X382999Y411184D01*
X382944Y411082D01*
X382897Y410971D01*
X382860Y410860D01*
X382833Y410749D01*
X385006D01*
X385043Y412063D01*
X385746D01*
X385691Y410000D01*
X382000D01*
Y410009D01*
Y410028D01*
Y410055D01*
Y410102D01*
X382009Y410157D01*
Y410213D01*
X382028Y410361D01*
X382055Y410536D01*
X382092Y410731D01*
X382139Y410934D01*
X382213Y411138D01*
Y411147D01*
X382222Y411166D01*
X382231Y411193D01*
X382250Y411230D01*
X382305Y411332D01*
X382370Y411461D01*
X382453Y411610D01*
X382555Y411767D01*
X382675Y411933D01*
X382814Y412090D01*
X382823Y412100D01*
X382833Y412109D01*
X382888Y412164D01*
X382925Y412201D01*
X382980Y412248D01*
X383036Y412303D01*
X383110Y412368D01*
X383184Y412433D01*
X383277Y412507D01*
X383369Y412590D01*
X383480Y412682D01*
X383591Y412775D01*
X383720Y412867D01*
X383850Y412969D01*
X383998Y413080D01*
X384007D01*
X384016Y413099D01*
X384044Y413117D01*
X384081Y413145D01*
X384165Y413210D01*
X384276Y413293D01*
X384386Y413395D01*
X384497Y413496D01*
X384599Y413598D01*
X384682Y413691D01*
X384692Y413700D01*
X384710Y413737D01*
X384738Y413783D01*
X384775Y413857D01*
X384812Y413940D01*
X384840Y414042D01*
X384858Y414153D01*
X384868Y414274D01*
Y414283D01*
Y414292D01*
Y414338D01*
X384858Y414412D01*
X384840Y414505D01*
X384803Y414607D01*
X384756Y414717D01*
X384692Y414828D01*
X384609Y414930D01*
X384599Y414939D01*
X384562Y414967D01*
X384507Y415014D01*
X384433Y415060D01*
X384331Y415106D01*
X384211Y415152D01*
X384072Y415180D01*
X383915Y415189D01*
X383832D01*
X383739Y415171D01*
X383628Y415152D01*
X383499Y415115D01*
X383378Y415069D01*
X383258Y414995D01*
X383156Y414893D01*
X383147Y414884D01*
X383119Y414838D01*
X383082Y414764D01*
X383036Y414671D01*
X382990Y414533D01*
X382953Y414375D01*
X382925Y414172D01*
X382916Y413940D01*
Y413931D01*
Y413913D01*
Y413876D01*
Y413839D01*
Y413737D01*
Y413626D01*
X382148D01*
Y413635D01*
Y413654D01*
Y413709D01*
Y413793D01*
Y413867D01*
Y413876D01*
Y413913D01*
Y413959D01*
X382157Y414024D01*
Y414098D01*
X382176Y414190D01*
X382185Y414292D01*
X382204Y414403D01*
X382259Y414643D01*
X382333Y414884D01*
X382444Y415125D01*
X382518Y415236D01*
X382592Y415337D01*
X382601Y415346D01*
X382611Y415365D01*
X382638Y415383D01*
X382675Y415420D01*
X382721Y415457D01*
X382777Y415504D01*
X382842Y415559D01*
X382925Y415605D01*
X383008Y415652D01*
X383110Y415707D01*
X383212Y415754D01*
X383332Y415791D01*
X383452Y415828D01*
X383591Y415855D01*
X383739Y415865D01*
X383896Y415874D01*
X383980D01*
X384035Y415865D01*
D02*
G37*
G36*
X427140Y414024D02*
X427880D01*
Y413321D01*
X427140D01*
Y411360D01*
Y411350D01*
Y411341D01*
Y411286D01*
Y411202D01*
X427149Y411110D01*
Y411008D01*
X427158Y410916D01*
X427168Y410833D01*
X427186Y410777D01*
X427196Y410758D01*
X427214Y410749D01*
X427242Y410731D01*
X427279Y410712D01*
X427316Y410694D01*
X427381Y410684D01*
X427445Y410675D01*
X427482D01*
X427528Y410684D01*
X427584D01*
X427649Y410694D01*
X427723Y410712D01*
X427880Y410758D01*
Y410037D01*
X427871D01*
X427824Y410018D01*
X427769Y410009D01*
X427686Y409991D01*
X427593Y409972D01*
X427492Y409954D01*
X427381Y409944D01*
X427270Y409935D01*
X427214D01*
X427140Y409944D01*
X427066Y409954D01*
X426973Y409972D01*
X426872Y410000D01*
X426779Y410037D01*
X426687Y410092D01*
X426678Y410102D01*
X426650Y410120D01*
X426613Y410157D01*
X426567Y410204D01*
X426520Y410259D01*
X426474Y410324D01*
X426437Y410407D01*
X426409Y410490D01*
Y410499D01*
X426400Y410536D01*
X426391Y410601D01*
X426381Y410684D01*
X426372Y410795D01*
X426363Y410944D01*
X426354Y411119D01*
Y411323D01*
Y413321D01*
X425827D01*
Y414024D01*
X426354D01*
Y414643D01*
X427140Y415365D01*
Y414024D01*
D02*
G37*
G36*
X435049Y413580D02*
X434327D01*
Y415060D01*
X433143D01*
Y410721D01*
X433892D01*
Y410000D01*
X431534D01*
Y410721D01*
X432274D01*
Y415060D01*
X431090D01*
Y413580D01*
X430368D01*
Y415781D01*
X435049D01*
Y413580D01*
D02*
G37*
G36*
X405772Y415865D02*
X405874Y415855D01*
X405995Y415837D01*
X406133Y415809D01*
X406281Y415781D01*
X406438Y415744D01*
X406596Y415698D01*
X406772Y415633D01*
X406938Y415559D01*
X407114Y415476D01*
X407280Y415374D01*
X407447Y415263D01*
X407604Y415134D01*
Y415781D01*
X408344D01*
Y413885D01*
X407604D01*
Y413894D01*
X407595Y413904D01*
X407585Y413931D01*
X407567Y413968D01*
X407512Y414051D01*
X407428Y414172D01*
X407327Y414301D01*
X407197Y414440D01*
X407040Y414588D01*
X406855Y414727D01*
X406846D01*
X406827Y414745D01*
X406799Y414764D01*
X406762Y414782D01*
X406716Y414819D01*
X406651Y414847D01*
X406503Y414921D01*
X406327Y414986D01*
X406124Y415051D01*
X405902Y415088D01*
X405652Y415106D01*
X405560D01*
X405495Y415097D01*
X405412Y415088D01*
X405319Y415069D01*
X405218Y415051D01*
X405106Y415023D01*
X404986Y414995D01*
X404866Y414949D01*
X404746Y414893D01*
X404616Y414838D01*
X404496Y414754D01*
X404376Y414671D01*
X404265Y414570D01*
X404154Y414459D01*
X404144Y414449D01*
X404126Y414431D01*
X404108Y414394D01*
X404071Y414348D01*
X404024Y414283D01*
X403978Y414209D01*
X403932Y414125D01*
X403886Y414024D01*
X403830Y413922D01*
X403784Y413802D01*
X403737Y413682D01*
X403691Y413543D01*
X403654Y413395D01*
X403636Y413247D01*
X403617Y413090D01*
X403608Y412923D01*
Y412914D01*
Y412877D01*
Y412821D01*
X403617Y412756D01*
X403626Y412664D01*
X403645Y412562D01*
X403663Y412451D01*
X403682Y412331D01*
X403756Y412063D01*
X403812Y411933D01*
X403867Y411795D01*
X403941Y411656D01*
X404024Y411526D01*
X404117Y411397D01*
X404228Y411276D01*
X404237Y411267D01*
X404255Y411249D01*
X404292Y411221D01*
X404339Y411184D01*
X404403Y411138D01*
X404478Y411082D01*
X404561Y411036D01*
X404653Y410981D01*
X404755Y410916D01*
X404875Y410870D01*
X405125Y410768D01*
X405273Y410731D01*
X405421Y410703D01*
X405578Y410684D01*
X405735Y410675D01*
X405800D01*
X405856Y410684D01*
X405911D01*
X405985Y410694D01*
X406152Y410721D01*
X406337Y410768D01*
X406550Y410833D01*
X406762Y410925D01*
X406966Y411055D01*
X406975Y411064D01*
X406993Y411073D01*
X407021Y411092D01*
X407049Y411129D01*
X407141Y411212D01*
X407253Y411323D01*
X407364Y411471D01*
X407465Y411637D01*
X407549Y411841D01*
X407585Y411952D01*
X407604Y412063D01*
X406559D01*
Y412784D01*
X408668D01*
Y412775D01*
Y412766D01*
Y412710D01*
Y412645D01*
Y412581D01*
Y412571D01*
Y412525D01*
X408659Y412461D01*
Y412377D01*
X408640Y412276D01*
X408622Y412155D01*
X408603Y412026D01*
X408566Y411878D01*
X408529Y411730D01*
X408473Y411573D01*
X408409Y411406D01*
X408325Y411239D01*
X408233Y411082D01*
X408131Y410925D01*
X408002Y410768D01*
X407863Y410629D01*
X407854Y410620D01*
X407826Y410601D01*
X407780Y410564D01*
X407715Y410518D01*
X407641Y410463D01*
X407539Y410398D01*
X407428Y410333D01*
X407299Y410268D01*
X407160Y410204D01*
X407003Y410139D01*
X406827Y410074D01*
X406642Y410018D01*
X406438Y409972D01*
X406226Y409935D01*
X406004Y409917D01*
X405763Y409907D01*
X405698D01*
X405615Y409917D01*
X405504Y409926D01*
X405375Y409935D01*
X405227Y409954D01*
X405060Y409981D01*
X404884Y410018D01*
X404690Y410065D01*
X404505Y410120D01*
X404302Y410194D01*
X404117Y410287D01*
X403923Y410389D01*
X403747Y410499D01*
X403580Y410638D01*
X403423Y410795D01*
X403414Y410805D01*
X403386Y410833D01*
X403349Y410888D01*
X403303Y410953D01*
X403247Y411036D01*
X403183Y411138D01*
X403109Y411258D01*
X403044Y411397D01*
X402970Y411536D01*
X402896Y411702D01*
X402831Y411878D01*
X402775Y412063D01*
X402729Y412257D01*
X402692Y412461D01*
X402665Y412682D01*
X402655Y412905D01*
Y412923D01*
Y412960D01*
X402665Y413025D01*
Y413117D01*
X402683Y413228D01*
X402692Y413348D01*
X402720Y413496D01*
X402757Y413645D01*
X402794Y413811D01*
X402849Y413987D01*
X402905Y414162D01*
X402979Y414338D01*
X403071Y414514D01*
X403173Y414690D01*
X403294Y414856D01*
X403432Y415023D01*
X403441Y415032D01*
X403469Y415060D01*
X403515Y415106D01*
X403580Y415152D01*
X403654Y415217D01*
X403756Y415291D01*
X403867Y415365D01*
X403997Y415448D01*
X404135Y415531D01*
X404302Y415605D01*
X404478Y415680D01*
X404663Y415744D01*
X404866Y415800D01*
X405088Y415837D01*
X405319Y415865D01*
X405569Y415874D01*
X405689D01*
X405772Y415865D01*
D02*
G37*
G36*
X436825Y413561D02*
X436834Y413570D01*
X436853Y413589D01*
X436890Y413617D01*
X436945Y413654D01*
X437010Y413691D01*
X437084Y413746D01*
X437167Y413793D01*
X437259Y413848D01*
X437463Y413950D01*
X437685Y414042D01*
X437805Y414079D01*
X437925Y414107D01*
X438046Y414125D01*
X438166Y414135D01*
X438231D01*
X438305Y414125D01*
X438397Y414116D01*
X438508Y414098D01*
X438619Y414061D01*
X438721Y414024D01*
X438823Y413968D01*
X438832Y413959D01*
X438869Y413940D01*
X438906Y413904D01*
X438962Y413848D01*
X439026Y413783D01*
X439082Y413709D01*
X439137Y413626D01*
X439174Y413524D01*
X439184Y413515D01*
X439193Y413478D01*
X439211Y413413D01*
X439230Y413321D01*
X439248Y413210D01*
X439257Y413080D01*
X439276Y412914D01*
Y412729D01*
Y410703D01*
X439960D01*
Y410000D01*
X438490D01*
Y412451D01*
Y412461D01*
Y412470D01*
Y412525D01*
Y412608D01*
Y412701D01*
X438481Y412803D01*
X438471Y412905D01*
X438462Y412997D01*
X438453Y413062D01*
Y413071D01*
X438444Y413090D01*
X438434Y413117D01*
X438425Y413154D01*
X438379Y413237D01*
X438342Y413284D01*
X438296Y413321D01*
X438286Y413330D01*
X438277Y413339D01*
X438249Y413358D01*
X438212Y413376D01*
X438110Y413404D01*
X438055Y413422D01*
X437944D01*
X437907Y413413D01*
X437861Y413404D01*
X437805Y413395D01*
X437676Y413358D01*
X437500Y413293D01*
X437407Y413256D01*
X437306Y413201D01*
X437195Y413136D01*
X437075Y413071D01*
X436954Y412988D01*
X436825Y412895D01*
Y410703D01*
X437519D01*
Y410000D01*
X435308D01*
Y410703D01*
X436038D01*
Y415078D01*
X435308D01*
Y415781D01*
X436825D01*
Y413561D01*
D02*
G37*
%LPC*%
G36*
X396518Y427052D02*
X396435D01*
X396380Y427038D01*
X396227Y427025D01*
X396033Y426983D01*
X395811Y426913D01*
X395588Y426802D01*
X395353Y426650D01*
X395255Y426567D01*
X395144Y426455D01*
X395117Y426428D01*
X395061Y426358D01*
X394978Y426220D01*
X394881Y426053D01*
X394770Y425845D01*
X394686Y425595D01*
X394631Y425317D01*
X394603Y425012D01*
Y424998D01*
Y424970D01*
Y424929D01*
X394617Y424859D01*
Y424790D01*
X394631Y424693D01*
X394672Y424484D01*
X394742Y424262D01*
X394839Y424013D01*
X394978Y423763D01*
X395158Y423541D01*
X395186Y423513D01*
X395255Y423457D01*
X395380Y423360D01*
X395533Y423263D01*
X395741Y423152D01*
X395963Y423055D01*
X396227Y422999D01*
X396518Y422972D01*
X396602D01*
X396657Y422986D01*
X396810Y422999D01*
X397004Y423041D01*
X397213Y423110D01*
X397448Y423208D01*
X397671Y423346D01*
X397893Y423541D01*
X397920Y423568D01*
X397976Y423652D01*
X398073Y423777D01*
X398170Y423943D01*
X398267Y424151D01*
X398364Y424401D01*
X398420Y424693D01*
X398448Y425012D01*
Y425026D01*
Y425054D01*
Y425095D01*
X398434Y425165D01*
X398420Y425317D01*
X398378Y425526D01*
X398309Y425762D01*
X398212Y425997D01*
X398073Y426247D01*
X397879Y426469D01*
X397851Y426497D01*
X397782Y426567D01*
X397657Y426650D01*
X397504Y426761D01*
X397310Y426872D01*
X397074Y426955D01*
X396810Y427025D01*
X396518Y427052D01*
D02*
G37*
G36*
X454065Y427108D02*
X453982D01*
X453926Y427094D01*
X453787Y427080D01*
X453593Y427038D01*
X453385Y426955D01*
X453149Y426844D01*
X452927Y426705D01*
X452816Y426608D01*
X452705Y426497D01*
X452677Y426469D01*
X452621Y426386D01*
X452538Y426261D01*
X452441Y426095D01*
X452330Y425873D01*
X452247Y425623D01*
X452191Y425345D01*
X452163Y425026D01*
Y425012D01*
Y424984D01*
Y424929D01*
X452177Y424859D01*
Y424776D01*
X452191Y424679D01*
X452233Y424457D01*
X452302Y424207D01*
X452399Y423957D01*
X452538Y423707D01*
X452719Y423485D01*
X452746Y423457D01*
X452816Y423402D01*
X452941Y423319D01*
X453107Y423221D01*
X453302Y423124D01*
X453538Y423041D01*
X453787Y422986D01*
X454079Y422958D01*
X454148D01*
X454204Y422972D01*
X454343Y422986D01*
X454523Y423027D01*
X454731Y423097D01*
X454967Y423194D01*
X455203Y423333D01*
X455425Y423513D01*
X455439Y423527D01*
X455453Y423541D01*
X455522Y423624D01*
X455619Y423749D01*
X455731Y423929D01*
X455828Y424151D01*
X455925Y424415D01*
X455994Y424734D01*
X456022Y424901D01*
Y425081D01*
Y425095D01*
Y425123D01*
Y425178D01*
X456008Y425248D01*
Y425331D01*
X455994Y425428D01*
X455953Y425650D01*
X455869Y425886D01*
X455758Y426136D01*
X455619Y426386D01*
X455522Y426497D01*
X455411Y426594D01*
X455384Y426622D01*
X455300Y426678D01*
X455189Y426761D01*
X455023Y426858D01*
X454814Y426941D01*
X454592Y427025D01*
X454343Y427080D01*
X454065Y427108D01*
D02*
G37*
G36*
X446084D02*
X446001D01*
X445945Y427094D01*
X445806Y427080D01*
X445612Y427038D01*
X445404Y426955D01*
X445168Y426844D01*
X444946Y426705D01*
X444835Y426608D01*
X444724Y426497D01*
X444696Y426469D01*
X444640Y426386D01*
X444557Y426261D01*
X444460Y426095D01*
X444349Y425873D01*
X444266Y425623D01*
X444210Y425345D01*
X444182Y425026D01*
Y425012D01*
Y424984D01*
Y424929D01*
X444196Y424859D01*
Y424776D01*
X444210Y424679D01*
X444252Y424457D01*
X444321Y424207D01*
X444418Y423957D01*
X444557Y423707D01*
X444738Y423485D01*
X444765Y423457D01*
X444835Y423402D01*
X444960Y423319D01*
X445126Y423221D01*
X445321Y423124D01*
X445556Y423041D01*
X445806Y422986D01*
X446098Y422958D01*
X446167D01*
X446223Y422972D01*
X446362Y422986D01*
X446542Y423027D01*
X446750Y423097D01*
X446986Y423194D01*
X447222Y423333D01*
X447444Y423513D01*
X447458Y423527D01*
X447472Y423541D01*
X447541Y423624D01*
X447639Y423749D01*
X447750Y423929D01*
X447847Y424151D01*
X447944Y424415D01*
X448013Y424734D01*
X448041Y424901D01*
Y425081D01*
Y425095D01*
Y425123D01*
Y425178D01*
X448027Y425248D01*
Y425331D01*
X448013Y425428D01*
X447972Y425650D01*
X447888Y425886D01*
X447777Y426136D01*
X447639Y426386D01*
X447541Y426497D01*
X447430Y426594D01*
X447403Y426622D01*
X447319Y426678D01*
X447208Y426761D01*
X447042Y426858D01*
X446834Y426941D01*
X446611Y427025D01*
X446362Y427080D01*
X446084Y427108D01*
D02*
G37*
G36*
X397808Y415199D02*
X397753D01*
X397707Y415189D01*
X397596Y415171D01*
X397466Y415125D01*
X397318Y415051D01*
X397244Y415004D01*
X397170Y414949D01*
X397105Y414875D01*
X397031Y414791D01*
X396976Y414699D01*
X396920Y414597D01*
Y414588D01*
X396911Y414570D01*
X396892Y414533D01*
X396883Y414486D01*
X396855Y414422D01*
X396837Y414348D01*
X396809Y414264D01*
X396791Y414162D01*
X396763Y414042D01*
X396735Y413913D01*
X396717Y413774D01*
X396698Y413626D01*
X396680Y413459D01*
X396661Y413274D01*
X396652Y413090D01*
Y412886D01*
Y412877D01*
Y412830D01*
Y412766D01*
X396661Y412682D01*
Y412581D01*
X396671Y412470D01*
X396680Y412340D01*
X396689Y412201D01*
X396726Y411905D01*
X396781Y411619D01*
X396809Y411471D01*
X396846Y411341D01*
X396892Y411221D01*
X396948Y411110D01*
Y411101D01*
X396967Y411092D01*
X396976Y411064D01*
X397004Y411027D01*
X397068Y410944D01*
X397170Y410851D01*
X397290Y410749D01*
X397438Y410666D01*
X397521Y410629D01*
X397614Y410601D01*
X397707Y410592D01*
X397808Y410583D01*
X397864D01*
X397901Y410592D01*
X398003Y410610D01*
X398132Y410647D01*
X398271Y410712D01*
X398336Y410758D01*
X398410Y410805D01*
X398483Y410870D01*
X398548Y410934D01*
X398613Y411018D01*
X398669Y411110D01*
Y411119D01*
X398678Y411138D01*
X398696Y411166D01*
X398715Y411212D01*
X398743Y411276D01*
X398761Y411341D01*
X398789Y411434D01*
X398826Y411536D01*
X398853Y411647D01*
X398881Y411776D01*
X398900Y411924D01*
X398927Y412090D01*
X398946Y412266D01*
X398965Y412451D01*
X398974Y412664D01*
Y412886D01*
Y412905D01*
Y412942D01*
Y413006D01*
Y413090D01*
X398965Y413191D01*
X398955Y413311D01*
X398946Y413441D01*
X398937Y413580D01*
X398900Y413867D01*
X398844Y414162D01*
X398807Y414301D01*
X398770Y414431D01*
X398724Y414551D01*
X398669Y414662D01*
Y414671D01*
X398650Y414690D01*
X398641Y414708D01*
X398613Y414745D01*
X398539Y414828D01*
X398446Y414930D01*
X398326Y415032D01*
X398178Y415115D01*
X398095Y415152D01*
X398003Y415180D01*
X397910Y415189D01*
X397808Y415199D01*
D02*
G37*
G36*
X442449Y413367D02*
X442393D01*
X442356Y413358D01*
X442254Y413348D01*
X442125Y413321D01*
X441977Y413274D01*
X441829Y413201D01*
X441672Y413099D01*
X441607Y413043D01*
X441533Y412969D01*
X441514Y412951D01*
X441477Y412905D01*
X441422Y412812D01*
X441357Y412701D01*
X441283Y412562D01*
X441228Y412396D01*
X441191Y412211D01*
X441172Y412007D01*
Y411998D01*
Y411979D01*
Y411952D01*
X441182Y411905D01*
Y411859D01*
X441191Y411795D01*
X441219Y411656D01*
X441265Y411508D01*
X441329Y411341D01*
X441422Y411175D01*
X441542Y411027D01*
X441561Y411008D01*
X441607Y410971D01*
X441690Y410907D01*
X441792Y410842D01*
X441931Y410768D01*
X442079Y410703D01*
X442254Y410666D01*
X442449Y410647D01*
X442504D01*
X442541Y410657D01*
X442643Y410666D01*
X442772Y410694D01*
X442911Y410740D01*
X443069Y410805D01*
X443217Y410897D01*
X443364Y411027D01*
X443383Y411045D01*
X443420Y411101D01*
X443485Y411184D01*
X443549Y411295D01*
X443614Y411434D01*
X443679Y411600D01*
X443716Y411795D01*
X443735Y412007D01*
Y412016D01*
Y412035D01*
Y412063D01*
X443725Y412109D01*
X443716Y412211D01*
X443688Y412350D01*
X443642Y412507D01*
X443577Y412664D01*
X443485Y412830D01*
X443355Y412979D01*
X443337Y412997D01*
X443291Y413043D01*
X443207Y413099D01*
X443106Y413173D01*
X442976Y413247D01*
X442819Y413302D01*
X442643Y413348D01*
X442449Y413367D01*
D02*
G37*
G36*
X411091Y411896D02*
X410934D01*
X410869Y411887D01*
X410795Y411868D01*
X410712Y411850D01*
X410619Y411813D01*
X410527Y411767D01*
X410434Y411702D01*
X410425Y411693D01*
X410397Y411665D01*
X410370Y411628D01*
X410333Y411563D01*
X410287Y411498D01*
X410259Y411406D01*
X410231Y411313D01*
X410222Y411202D01*
Y411193D01*
Y411156D01*
X410231Y411101D01*
X410250Y411036D01*
X410268Y410962D01*
X410296Y410888D01*
X410342Y410805D01*
X410407Y410731D01*
X410416Y410721D01*
X410444Y410703D01*
X410490Y410675D01*
X410545Y410638D01*
X410619Y410601D01*
X410712Y410573D01*
X410814Y410555D01*
X410934Y410546D01*
X410990D01*
X411036Y410555D01*
X411082Y410564D01*
X411147Y410573D01*
X411285Y410610D01*
X411452Y410666D01*
X411637Y410749D01*
X411729Y410805D01*
X411831Y410870D01*
X411924Y410944D01*
X412025Y411027D01*
Y411489D01*
X412016Y411498D01*
X412007Y411508D01*
X411970Y411526D01*
X411933Y411554D01*
X411831Y411619D01*
X411702Y411693D01*
X411545Y411767D01*
X411369Y411832D01*
X411184Y411878D01*
X411091Y411896D01*
D02*
G37*
G36*
X388577Y415199D02*
X388521D01*
X388475Y415189D01*
X388364Y415171D01*
X388234Y415125D01*
X388087Y415051D01*
X388013Y415004D01*
X387938Y414949D01*
X387874Y414875D01*
X387800Y414791D01*
X387744Y414699D01*
X387689Y414597D01*
Y414588D01*
X387680Y414570D01*
X387661Y414533D01*
X387652Y414486D01*
X387624Y414422D01*
X387606Y414348D01*
X387578Y414264D01*
X387559Y414162D01*
X387531Y414042D01*
X387504Y413913D01*
X387485Y413774D01*
X387467Y413626D01*
X387448Y413459D01*
X387430Y413274D01*
X387421Y413090D01*
Y412886D01*
Y412877D01*
Y412830D01*
Y412766D01*
X387430Y412682D01*
Y412581D01*
X387439Y412470D01*
X387448Y412340D01*
X387457Y412201D01*
X387494Y411905D01*
X387550Y411619D01*
X387578Y411471D01*
X387615Y411341D01*
X387661Y411221D01*
X387717Y411110D01*
Y411101D01*
X387735Y411092D01*
X387744Y411064D01*
X387772Y411027D01*
X387837Y410944D01*
X387938Y410851D01*
X388059Y410749D01*
X388207Y410666D01*
X388290Y410629D01*
X388383Y410601D01*
X388475Y410592D01*
X388577Y410583D01*
X388632D01*
X388669Y410592D01*
X388771Y410610D01*
X388900Y410647D01*
X389039Y410712D01*
X389104Y410758D01*
X389178Y410805D01*
X389252Y410870D01*
X389317Y410934D01*
X389382Y411018D01*
X389437Y411110D01*
Y411119D01*
X389446Y411138D01*
X389465Y411166D01*
X389483Y411212D01*
X389511Y411276D01*
X389529Y411341D01*
X389557Y411434D01*
X389594Y411536D01*
X389622Y411647D01*
X389650Y411776D01*
X389668Y411924D01*
X389696Y412090D01*
X389715Y412266D01*
X389733Y412451D01*
X389742Y412664D01*
Y412886D01*
Y412905D01*
Y412942D01*
Y413006D01*
Y413090D01*
X389733Y413191D01*
X389724Y413311D01*
X389715Y413441D01*
X389705Y413580D01*
X389668Y413867D01*
X389613Y414162D01*
X389576Y414301D01*
X389539Y414431D01*
X389493Y414551D01*
X389437Y414662D01*
Y414671D01*
X389419Y414690D01*
X389409Y414708D01*
X389382Y414745D01*
X389307Y414828D01*
X389215Y414930D01*
X389095Y415032D01*
X388947Y415115D01*
X388863Y415152D01*
X388771Y415180D01*
X388679Y415189D01*
X388577Y415199D01*
D02*
G37*
G36*
X458581Y413367D02*
X458525D01*
X458488Y413358D01*
X458387Y413348D01*
X458257Y413321D01*
X458109Y413274D01*
X457961Y413201D01*
X457804Y413099D01*
X457739Y413043D01*
X457665Y412969D01*
X457647Y412951D01*
X457610Y412905D01*
X457554Y412812D01*
X457489Y412701D01*
X457415Y412562D01*
X457360Y412396D01*
X457323Y412211D01*
X457304Y412007D01*
Y411998D01*
Y411979D01*
Y411952D01*
X457313Y411905D01*
Y411859D01*
X457323Y411795D01*
X457350Y411656D01*
X457397Y411508D01*
X457462Y411341D01*
X457554Y411175D01*
X457674Y411027D01*
X457693Y411008D01*
X457739Y410971D01*
X457822Y410907D01*
X457924Y410842D01*
X458063Y410768D01*
X458211Y410703D01*
X458387Y410666D01*
X458581Y410647D01*
X458636D01*
X458673Y410657D01*
X458775Y410666D01*
X458905Y410694D01*
X459043Y410740D01*
X459200Y410805D01*
X459348Y410897D01*
X459496Y411027D01*
X459515Y411045D01*
X459552Y411101D01*
X459617Y411184D01*
X459682Y411295D01*
X459746Y411434D01*
X459811Y411600D01*
X459848Y411795D01*
X459867Y412007D01*
Y412016D01*
Y412035D01*
Y412063D01*
X459857Y412109D01*
X459848Y412211D01*
X459820Y412350D01*
X459774Y412507D01*
X459709Y412664D01*
X459617Y412830D01*
X459487Y412979D01*
X459469Y412997D01*
X459422Y413043D01*
X459339Y413099D01*
X459237Y413173D01*
X459108Y413247D01*
X458951Y413302D01*
X458775Y413348D01*
X458581Y413367D01*
D02*
G37*
G36*
X431399Y425997D02*
X430386D01*
Y423083D01*
X431205D01*
X431413Y423097D01*
X431649D01*
X431885Y423124D01*
X432093Y423138D01*
X432287Y423166D01*
X432301D01*
X432371Y423194D01*
X432454Y423221D01*
X432551Y423263D01*
X432662Y423319D01*
X432787Y423402D01*
X432912Y423499D01*
X433023Y423624D01*
X433037Y423638D01*
X433065Y423693D01*
X433120Y423763D01*
X433176Y423874D01*
X433217Y424013D01*
X433273Y424165D01*
X433300Y424346D01*
X433314Y424554D01*
Y424582D01*
Y424637D01*
X433300Y424734D01*
X433287Y424859D01*
X433245Y424984D01*
X433203Y425137D01*
X433134Y425276D01*
X433037Y425415D01*
X433023Y425428D01*
X432981Y425470D01*
X432926Y425526D01*
X432842Y425609D01*
X432745Y425678D01*
X432620Y425762D01*
X432482Y425817D01*
X432329Y425873D01*
X432315D01*
X432246Y425886D01*
X432162Y425914D01*
X432023Y425942D01*
X431857Y425956D01*
X431649Y425984D01*
X431399Y425997D01*
D02*
G37*
G36*
X418740Y427052D02*
X418657D01*
X418602Y427038D01*
X418449Y427025D01*
X418255Y426983D01*
X418033Y426913D01*
X417810Y426802D01*
X417574Y426650D01*
X417477Y426567D01*
X417366Y426455D01*
X417339Y426428D01*
X417283Y426358D01*
X417200Y426220D01*
X417102Y426053D01*
X416992Y425845D01*
X416908Y425595D01*
X416853Y425317D01*
X416825Y425012D01*
Y424998D01*
Y424970D01*
Y424929D01*
X416839Y424859D01*
Y424790D01*
X416853Y424693D01*
X416894Y424484D01*
X416964Y424262D01*
X417061Y424013D01*
X417200Y423763D01*
X417380Y423541D01*
X417408Y423513D01*
X417477Y423457D01*
X417602Y423360D01*
X417755Y423263D01*
X417963Y423152D01*
X418185Y423055D01*
X418449Y422999D01*
X418740Y422972D01*
X418824D01*
X418879Y422986D01*
X419032Y422999D01*
X419226Y423041D01*
X419434Y423110D01*
X419670Y423208D01*
X419892Y423346D01*
X420115Y423541D01*
X420142Y423568D01*
X420198Y423652D01*
X420295Y423777D01*
X420392Y423943D01*
X420489Y424151D01*
X420586Y424401D01*
X420642Y424693D01*
X420670Y425012D01*
Y425026D01*
Y425054D01*
Y425095D01*
X420656Y425165D01*
X420642Y425317D01*
X420600Y425526D01*
X420531Y425762D01*
X420434Y425997D01*
X420295Y426247D01*
X420101Y426469D01*
X420073Y426497D01*
X420003Y426567D01*
X419878Y426650D01*
X419726Y426761D01*
X419531Y426872D01*
X419296Y426955D01*
X419032Y427025D01*
X418740Y427052D01*
D02*
G37*
G36*
X431205Y429592D02*
X430386D01*
Y427066D01*
X431357D01*
X431524Y427080D01*
X431718Y427108D01*
X431940Y427149D01*
X432162Y427205D01*
X432357Y427274D01*
X432523Y427385D01*
X432537Y427399D01*
X432579Y427455D01*
X432648Y427524D01*
X432718Y427635D01*
X432773Y427774D01*
X432842Y427941D01*
X432884Y428135D01*
X432898Y428357D01*
Y428371D01*
Y428413D01*
X432884Y428468D01*
X432870Y428551D01*
X432842Y428649D01*
X432815Y428746D01*
X432759Y428857D01*
X432690Y428982D01*
X432593Y429093D01*
X432482Y429204D01*
X432343Y429301D01*
X432190Y429398D01*
X431996Y429481D01*
X431760Y429537D01*
X431510Y429578D01*
X431205Y429592D01*
D02*
G37*
G36*
X423116Y413496D02*
X423033D01*
X422950Y413478D01*
X422839Y413459D01*
X422709Y413422D01*
X422571Y413367D01*
X422432Y413284D01*
X422302Y413182D01*
X422284Y413173D01*
X422247Y413127D01*
X422191Y413062D01*
X422126Y412969D01*
X422052Y412858D01*
X421988Y412719D01*
X421932Y412562D01*
X421895Y412387D01*
X424439D01*
Y412396D01*
Y412405D01*
X424420Y412461D01*
X424393Y412535D01*
X424356Y412636D01*
X424291Y412756D01*
X424217Y412886D01*
X424115Y413016D01*
X423995Y413145D01*
X423977Y413164D01*
X423930Y413201D01*
X423856Y413256D01*
X423755Y413321D01*
X423625Y413385D01*
X423477Y413441D01*
X423301Y413478D01*
X423116Y413496D01*
D02*
G37*
%LPD*%
D18*
X197500Y505000D02*
X253000D01*
X197500D02*
Y545000D01*
X208000D01*
X228000D01*
X248000D01*
X253000D01*
Y505000D02*
Y545000D01*
X378000Y440999D02*
Y438000D01*
X379500D01*
X379999Y438500D01*
Y440499D01*
X379500Y440999D01*
X378000D01*
X382998Y440499D02*
X382499Y440999D01*
X381499D01*
X380999Y440499D01*
Y439999D01*
X381499Y439500D01*
X382499D01*
X382998Y439000D01*
Y438500D01*
X382499Y438000D01*
X381499D01*
X380999Y438500D01*
X383998Y440999D02*
X385997D01*
X384998D01*
Y438000D01*
X378000Y488999D02*
Y486000D01*
X379500D01*
X379999Y486500D01*
Y488499D01*
X379500Y488999D01*
X378000D01*
X380999Y486000D02*
Y488999D01*
X382499D01*
X382998Y488499D01*
Y487500D01*
X382499Y487000D01*
X380999D01*
X383998Y488999D02*
Y486000D01*
X384998Y487000D01*
X385997Y486000D01*
Y488999D01*
X396000Y438000D02*
Y440999D01*
X397499D01*
X397999Y440499D01*
Y439500D01*
X397499Y439000D01*
X396000D01*
X397000D02*
X397999Y438000D01*
X400998Y440999D02*
X398999D01*
Y439500D01*
X399999Y439999D01*
X400498D01*
X400998Y439500D01*
Y438500D01*
X400498Y438000D01*
X399499D01*
X398999Y438500D01*
X401998Y437500D02*
X403997D01*
X404997Y440999D02*
Y438000D01*
X406497D01*
X406996Y438500D01*
Y440499D01*
X406497Y440999D01*
X404997D01*
X407996Y438000D02*
X408996D01*
X408496D01*
Y440999D01*
X407996Y440499D01*
X398000Y486000D02*
Y488999D01*
X399500D01*
X399999Y488499D01*
Y487500D01*
X399500Y487000D01*
X398000D01*
X399000D02*
X399999Y486000D01*
X402998Y488999D02*
X401999Y488499D01*
X400999Y487500D01*
Y486500D01*
X401499Y486000D01*
X402498D01*
X402998Y486500D01*
Y487000D01*
X402498Y487500D01*
X400999D01*
X403998Y485500D02*
X405997D01*
X406997Y488999D02*
Y486000D01*
X408497D01*
X408996Y486500D01*
Y488499D01*
X408497Y488999D01*
X406997D01*
X411996Y486000D02*
X409996D01*
X411996Y487999D01*
Y488499D01*
X411496Y488999D01*
X410496D01*
X409996Y488499D01*
X201999Y554498D02*
X199999D01*
X200999D01*
Y549500D01*
X199999Y548500D01*
X199000D01*
X198000Y549500D01*
X203998Y548500D02*
X205997D01*
X204998D01*
Y554498D01*
X203998Y553498D01*
X423999Y514499D02*
X423499Y514999D01*
X422500D01*
X422000Y514499D01*
Y512500D01*
X422500Y512000D01*
X423499D01*
X423999Y512500D01*
X424999Y512000D02*
X425999D01*
X425499D01*
Y514999D01*
X424999Y514499D01*
X399999D02*
X399500Y514999D01*
X398500D01*
X398000Y514499D01*
Y512500D01*
X398500Y512000D01*
X399500D01*
X399999Y512500D01*
X402998Y512000D02*
X400999D01*
X402998Y513999D01*
Y514499D01*
X402498Y514999D01*
X401499D01*
X400999Y514499D01*
X422000Y460000D02*
Y462999D01*
X423499D01*
X423999Y462499D01*
Y461500D01*
X423499Y461000D01*
X422000D01*
X423000D02*
X423999Y460000D01*
X424999D02*
X425999D01*
X425499D01*
Y462999D01*
X424999Y462499D01*
X422000Y486000D02*
Y488999D01*
X423499D01*
X423999Y488499D01*
Y487500D01*
X423499Y487000D01*
X422000D01*
X423000D02*
X423999Y486000D01*
X426998D02*
X424999D01*
X426998Y487999D01*
Y488499D01*
X426499Y488999D01*
X425499D01*
X424999Y488499D01*
X442000Y486000D02*
Y488999D01*
X443500D01*
X443999Y488499D01*
Y487500D01*
X443500Y487000D01*
X442000D01*
X443000D02*
X443999Y486000D01*
X444999Y488499D02*
X445499Y488999D01*
X446498D01*
X446998Y488499D01*
Y487999D01*
X446498Y487500D01*
X445999D01*
X446498D01*
X446998Y487000D01*
Y486500D01*
X446498Y486000D01*
X445499D01*
X444999Y486500D01*
X448000Y460000D02*
Y462999D01*
X449500D01*
X449999Y462499D01*
Y461500D01*
X449500Y461000D01*
X448000D01*
X449000D02*
X449999Y460000D01*
X452498D02*
Y462999D01*
X450999Y461500D01*
X452998D01*
X355999Y552998D02*
X354999Y553998D01*
X353000D01*
X352000Y552998D01*
Y551999D01*
X353000Y550999D01*
X354999D01*
X355999Y549999D01*
Y549000D01*
X354999Y548000D01*
X353000D01*
X352000Y549000D01*
X357998Y553998D02*
Y548000D01*
X359997Y549999D01*
X361997Y548000D01*
Y553998D01*
X363996Y548000D02*
X365996D01*
X364996D01*
Y553998D01*
X363996Y552998D01*
X452000Y524999D02*
Y523000D01*
X453000Y522000D01*
X453999Y523000D01*
Y524999D01*
X454999Y522000D02*
Y524999D01*
X456498D01*
X456998Y524499D01*
Y523499D01*
X456498Y523000D01*
X454999D01*
X455999D02*
X456998Y522000D01*
X459997Y524999D02*
X457998D01*
Y522000D01*
X459997D01*
X457998Y523499D02*
X458998D01*
X462996Y524499D02*
X462497Y524999D01*
X461497D01*
X460997Y524499D01*
Y522500D01*
X461497Y522000D01*
X462497D01*
X462996Y522500D01*
Y523499D01*
X461997D01*
X282000Y549998D02*
Y544000D01*
X284999D01*
X285999Y545000D01*
Y548998D01*
X284999Y549998D01*
X282000D01*
X287998D02*
X289997D01*
X288998D01*
Y544000D01*
X287998D01*
X289997D01*
X292996D02*
Y547999D01*
X294996Y549998D01*
X296995Y547999D01*
Y544000D01*
Y546999D01*
X292996D01*
X298994Y549998D02*
Y544000D01*
X302993D01*
X312000Y456000D02*
Y461998D01*
X315999Y456000D01*
Y461998D01*
X318998Y456000D02*
X320997D01*
X321997Y457000D01*
Y458999D01*
X320997Y459999D01*
X318998D01*
X317998Y458999D01*
Y457000D01*
X318998Y456000D01*
X327995Y461998D02*
Y456000D01*
X324996D01*
X323996Y457000D01*
Y458999D01*
X324996Y459999D01*
X327995D01*
X332993Y456000D02*
X330994D01*
X329994Y457000D01*
Y458999D01*
X330994Y459999D01*
X332993D01*
X333993Y458999D01*
Y457999D01*
X329994D01*
X335992Y456000D02*
Y461998D01*
X337992Y459999D01*
X339991Y461998D01*
Y456000D01*
X345989Y460998D02*
X344989Y461998D01*
X342990D01*
X341990Y460998D01*
Y457000D01*
X342990Y456000D01*
X344989D01*
X345989Y457000D01*
X347988Y461998D02*
Y457000D01*
X348988Y456000D01*
X350987D01*
X351987Y457000D01*
Y461998D01*
X393899Y553098D02*
X392899Y554098D01*
X390900D01*
X389900Y553098D01*
Y552099D01*
X390900Y551099D01*
X392899D01*
X393899Y550099D01*
Y549100D01*
X392899Y548100D01*
X390900D01*
X389900Y549100D01*
X395898Y554098D02*
Y548100D01*
X397897Y550099D01*
X399897Y548100D01*
Y554098D01*
X405895Y548100D02*
X401896D01*
X405895Y552099D01*
Y553098D01*
X404895Y554098D01*
X402896D01*
X401896Y553098D01*
D29*
X381405Y522142D02*
G03*
X381405Y522142I-492J0D01*
G01*
X454815Y517252D02*
G03*
X454815Y517252I-492J0D01*
G01*
X425406Y522142D02*
G03*
X425406Y522142I-492J0D01*
G01*
D30*
X378031Y450591D02*
X381968D01*
X378031Y449409D02*
Y450591D01*
X381968Y449409D02*
Y450591D01*
X379000Y457000D02*
X381000D01*
X378031Y476591D02*
X381968D01*
X378031Y475409D02*
Y476591D01*
X381968Y475409D02*
Y476591D01*
X379000Y483000D02*
X381000D01*
X395276Y447244D02*
Y452756D01*
X396276Y473244D02*
Y478756D01*
X452657Y475606D02*
Y476394D01*
X447343Y475606D02*
Y476394D01*
X452657Y449606D02*
Y450394D01*
X447343Y449606D02*
Y450394D01*
X374811Y527669D02*
Y534437D01*
X354638Y542811D02*
X370362D01*
X351189Y527163D02*
Y535037D01*
X354638Y519189D02*
X370268D01*
X467118Y498945D02*
Y502488D01*
X456882Y498945D02*
X467118D01*
Y513512D02*
Y517055D01*
X456882D02*
X467118D01*
X418811Y527669D02*
Y534437D01*
X398638Y542811D02*
X414362D01*
X395189Y527163D02*
Y535037D01*
X398638Y519189D02*
X414268D01*
M02*
