G04 Layer_Color=20142*
%FSLAX25Y25*%
%MOIN*%
G70*
G01*
G75*
%ADD31R,0.07099X0.03162*%
%ADD32R,0.06115X0.05131*%
%ADD33R,0.06509X0.04934*%
%ADD34R,0.06902X0.05721*%
G04:AMPARAMS|DCode=35|XSize=55.24mil|YSize=51.31mil|CornerRadius=0mil|HoleSize=0mil|Usage=FLASHONLY|Rotation=0.000|XOffset=0mil|YOffset=0mil|HoleType=Round|Shape=Octagon|*
%AMOCTAGOND35*
4,1,8,0.02762,-0.01283,0.02762,0.01283,0.01480,0.02565,-0.01480,0.02565,-0.02762,0.01283,-0.02762,-0.01283,-0.01480,-0.02565,0.01480,-0.02565,0.02762,-0.01283,0.0*
%
%ADD35OCTAGOND35*%

%ADD36R,0.03950X0.03950*%
G04:AMPARAMS|DCode=37|XSize=86.74mil|YSize=141.86mil|CornerRadius=0mil|HoleSize=0mil|Usage=FLASHONLY|Rotation=90.000|XOffset=0mil|YOffset=0mil|HoleType=Round|Shape=Octagon|*
%AMOCTAGOND37*
4,1,8,-0.07093,-0.02169,-0.07093,0.02169,-0.04924,0.04337,0.04924,0.04337,0.07093,0.02169,0.07093,-0.02169,0.04924,-0.04337,-0.04924,-0.04337,-0.07093,-0.02169,0.0*
%
%ADD37OCTAGOND37*%

%ADD38R,0.08674X0.03556*%
%ADD39C,0.07800*%
%ADD40C,0.06800*%
%ADD41C,0.06706*%
%ADD42R,0.06706X0.06706*%
%ADD43C,0.13800*%
%ADD44R,0.06800X0.10800*%
%ADD45O,0.06800X0.10800*%
%ADD46C,0.08674*%
%ADD47C,0.03300*%
%ADD48C,0.05800*%
D31*
X454126Y513906D02*
D03*
Y502094D02*
D03*
D32*
X424000Y506756D02*
D03*
X400000D02*
D03*
X424000Y501244D02*
D03*
X400000D02*
D03*
D33*
X401000Y479642D02*
D03*
X400000Y453642D02*
D03*
Y446358D02*
D03*
X401000Y472358D02*
D03*
X424000Y479642D02*
D03*
Y472358D02*
D03*
Y453642D02*
D03*
Y446358D02*
D03*
D34*
X450000Y480035D02*
D03*
Y454035D02*
D03*
Y471965D02*
D03*
Y445965D02*
D03*
D35*
X380000Y445866D02*
D03*
Y454134D02*
D03*
X380000Y471866D02*
D03*
Y480134D02*
D03*
D36*
X380000Y446850D02*
D03*
Y453150D02*
D03*
X380000Y472850D02*
D03*
Y479150D02*
D03*
D37*
X465543Y508000D02*
D03*
D38*
X454913D02*
D03*
D39*
X274472Y540842D02*
D03*
Y531000D02*
D03*
Y521158D02*
D03*
X331559Y540842D02*
D03*
Y521158D02*
D03*
X304000Y556984D02*
D03*
Y505016D02*
D03*
D40*
X248000Y525000D02*
D03*
Y515000D02*
D03*
Y535000D02*
D03*
D41*
X375795Y539858D02*
D03*
X350205D02*
D03*
Y522142D02*
D03*
X419795Y539858D02*
D03*
X394205D02*
D03*
Y522142D02*
D03*
D42*
X375795Y522142D02*
D03*
X419795Y522142D02*
D03*
D43*
X215000Y555000D02*
D03*
Y415000D02*
D03*
X495000D02*
D03*
Y555000D02*
D03*
D44*
X346000Y490000D02*
D03*
D45*
X336000D02*
D03*
X326000D02*
D03*
X346000Y430000D02*
D03*
X316000Y490000D02*
D03*
X306000D02*
D03*
X296000D02*
D03*
X286000D02*
D03*
X276000D02*
D03*
X266000D02*
D03*
X256000D02*
D03*
X246000D02*
D03*
X236000D02*
D03*
X226000D02*
D03*
X216000D02*
D03*
X206000D02*
D03*
Y430000D02*
D03*
X216000D02*
D03*
X226000D02*
D03*
X236000D02*
D03*
X246000D02*
D03*
X256000D02*
D03*
X266000D02*
D03*
X276000D02*
D03*
X286000D02*
D03*
X296000D02*
D03*
X306000D02*
D03*
X316000D02*
D03*
X326000D02*
D03*
X336000D02*
D03*
D46*
X495626Y499000D02*
D03*
Y470850D02*
D03*
D47*
X493600Y484200D02*
D03*
Y479082D02*
D03*
Y489318D02*
D03*
X497537Y481641D02*
D03*
Y486759D02*
D03*
D48*
X484000Y498918D02*
D03*
X441035Y480035D02*
D03*
Y463000D02*
D03*
X409244Y501244D02*
D03*
X390642Y453642D02*
D03*
X411858Y479642D02*
D03*
X413744Y506756D02*
D03*
X441906Y513906D02*
D03*
X389256Y506756D02*
D03*
X466000Y462000D02*
D03*
Y482000D02*
D03*
M02*
