G04 Layer_Color=15132400*
%FSLAX25Y25*%
%MOIN*%
G70*
G01*
G75*
%ADD10C,0.01000*%
%ADD29C,0.00984*%
%ADD30C,0.00787*%
D10*
X253500Y468750D02*
X271000D01*
Y458750D02*
Y468750D01*
Y418750D02*
Y428750D01*
X253500Y418750D02*
X271000D01*
X216000Y468750D02*
X233500D01*
X216000Y418750D02*
X233500D01*
X216000D02*
Y468750D01*
X458500Y467499D02*
Y465500D01*
X459500Y464500D01*
X460499Y465500D01*
Y467499D01*
X461499Y464500D02*
Y467499D01*
X462998D01*
X463498Y466999D01*
Y466000D01*
X462998Y465500D01*
X461499D01*
X462499D02*
X463498Y464500D01*
X466497Y467499D02*
X464498D01*
Y464500D01*
X466497D01*
X464498Y466000D02*
X465498D01*
X469496Y466999D02*
X468997Y467499D01*
X467997D01*
X467497Y466999D01*
Y465000D01*
X467997Y464500D01*
X468997D01*
X469496Y465000D01*
Y466000D01*
X468497D01*
X368000Y441000D02*
Y443999D01*
X369499D01*
X369999Y443499D01*
Y442499D01*
X369499Y442000D01*
X368000D01*
X369000D02*
X369999Y441000D01*
X372998Y443999D02*
X370999D01*
Y442499D01*
X371999Y442999D01*
X372498D01*
X372998Y442499D01*
Y441500D01*
X372498Y441000D01*
X371499D01*
X370999Y441500D01*
X373998Y440500D02*
X375997D01*
X376997Y443999D02*
Y441000D01*
X378497D01*
X378996Y441500D01*
Y443499D01*
X378497Y443999D01*
X376997D01*
X379996Y441000D02*
X380996D01*
X380496D01*
Y443999D01*
X379996Y443499D01*
X216500Y480199D02*
Y477200D01*
X218000D01*
X218499Y477700D01*
Y479699D01*
X218000Y480199D01*
X216500D01*
X219499D02*
X220499D01*
X219999D01*
Y477200D01*
X219499D01*
X220499D01*
X221998D02*
Y479199D01*
X222998Y480199D01*
X223998Y479199D01*
Y477200D01*
Y478699D01*
X221998D01*
X224997Y480199D02*
Y477200D01*
X226997D01*
X286499Y421999D02*
X285999Y422499D01*
X285000D01*
X284500Y421999D01*
Y421499D01*
X285000Y420999D01*
X285999D01*
X286499Y420500D01*
Y420000D01*
X285999Y419500D01*
X285000D01*
X284500Y420000D01*
X287499Y422499D02*
Y419500D01*
X288499Y420500D01*
X289498Y419500D01*
Y422499D01*
X290498Y419500D02*
X291498D01*
X290998D01*
Y422499D01*
X290498Y421999D01*
X345500Y441000D02*
Y443999D01*
X347000D01*
X347499Y443499D01*
Y442499D01*
X347000Y442000D01*
X345500D01*
X346500D02*
X347499Y441000D01*
X350498Y443999D02*
X349499Y443499D01*
X348499Y442499D01*
Y441500D01*
X348999Y441000D01*
X349998D01*
X350498Y441500D01*
Y442000D01*
X349998Y442499D01*
X348499D01*
X351498Y440500D02*
X353497D01*
X354497Y443999D02*
Y441000D01*
X355997D01*
X356496Y441500D01*
Y443499D01*
X355997Y443999D01*
X354497D01*
X359495Y441000D02*
X357496D01*
X359495Y442999D01*
Y443499D01*
X358996Y443999D01*
X357996D01*
X357496Y443499D01*
X412500Y428500D02*
Y431499D01*
X414000D01*
X414499Y430999D01*
Y429999D01*
X414000Y429500D01*
X412500D01*
X413500D02*
X414499Y428500D01*
X416998D02*
Y431499D01*
X415499Y429999D01*
X417498D01*
X412000Y446000D02*
Y448999D01*
X413499D01*
X413999Y448499D01*
Y447500D01*
X413499Y447000D01*
X412000D01*
X413000D02*
X413999Y446000D01*
X414999Y448499D02*
X415499Y448999D01*
X416499D01*
X416998Y448499D01*
Y447999D01*
X416499Y447500D01*
X415999D01*
X416499D01*
X416998Y447000D01*
Y446500D01*
X416499Y446000D01*
X415499D01*
X414999Y446500D01*
X354000Y465300D02*
Y468299D01*
X355500D01*
X355999Y467799D01*
Y466799D01*
X355500Y466300D01*
X354000D01*
X355000D02*
X355999Y465300D01*
X358998D02*
X356999D01*
X358998Y467299D01*
Y467799D01*
X358499Y468299D01*
X357499D01*
X356999Y467799D01*
X366500Y465300D02*
Y468299D01*
X368000D01*
X368499Y467799D01*
Y466799D01*
X368000Y466300D01*
X366500D01*
X367500D02*
X368499Y465300D01*
X369499D02*
X370499D01*
X369999D01*
Y468299D01*
X369499Y467799D01*
X319000Y432499D02*
Y429500D01*
X320499D01*
X320999Y430000D01*
Y431999D01*
X320499Y432499D01*
X319000D01*
X321999Y429500D02*
Y432499D01*
X323499D01*
X323998Y431999D01*
Y431000D01*
X323499Y430500D01*
X321999D01*
X324998Y432499D02*
Y429500D01*
X325998Y430500D01*
X326997Y429500D01*
Y432499D01*
X330500Y456499D02*
Y453500D01*
X331999D01*
X332499Y454000D01*
Y455999D01*
X331999Y456499D01*
X330500D01*
X335498Y455999D02*
X334998Y456499D01*
X333999D01*
X333499Y455999D01*
Y455499D01*
X333999Y454999D01*
X334998D01*
X335498Y454500D01*
Y454000D01*
X334998Y453500D01*
X333999D01*
X333499Y454000D01*
X336498Y456499D02*
X338497D01*
X337498D01*
Y453500D01*
X437999Y449999D02*
X437500Y450499D01*
X436500D01*
X436000Y449999D01*
Y448000D01*
X436500Y447500D01*
X437500D01*
X437999Y448000D01*
X440998Y447500D02*
X438999D01*
X440998Y449499D01*
Y449999D01*
X440498Y450499D01*
X439499D01*
X438999Y449999D01*
X450999Y432499D02*
X450499Y432999D01*
X449500D01*
X449000Y432499D01*
Y430500D01*
X449500Y430000D01*
X450499D01*
X450999Y430500D01*
X451999Y430000D02*
X452999D01*
X452499D01*
Y432999D01*
X451999Y432499D01*
D29*
X451815Y459752D02*
G03*
X451815Y459752I-492J0D01*
G01*
X287134Y427087D02*
G03*
X287134Y427087I-492J0D01*
G01*
D30*
X453882Y459555D02*
X464118D01*
Y456012D02*
Y459555D01*
X453882Y441445D02*
X464118D01*
Y444988D01*
X374224Y427744D02*
Y433256D01*
X283689Y437732D02*
Y453362D01*
X291663Y456811D02*
X299537D01*
X307311Y437638D02*
Y453362D01*
X292169Y433189D02*
X298937D01*
X362224Y427744D02*
Y433256D01*
X417606Y440657D02*
X418394D01*
X417606Y435343D02*
X418394D01*
X417606Y459157D02*
X418394D01*
X417606Y453843D02*
X418394D01*
X322041Y436953D02*
X324041D01*
X321073Y443362D02*
Y444543D01*
X325010Y443362D02*
Y444543D01*
X321073Y443362D02*
X325010D01*
X334000Y436953D02*
X336000D01*
X333032Y443362D02*
Y444543D01*
X336969Y443362D02*
Y444543D01*
X333032Y443362D02*
X336969D01*
M02*
