G04 Layer_Color=20142*
%FSLAX25Y25*%
%MOIN*%
G70*
G01*
G75*
%ADD31R,0.08674X0.03556*%
%ADD32R,0.07099X0.03162*%
G04:AMPARAMS|DCode=33|XSize=86.74mil|YSize=141.86mil|CornerRadius=0mil|HoleSize=0mil|Usage=FLASHONLY|Rotation=90.000|XOffset=0mil|YOffset=0mil|HoleType=Round|Shape=Octagon|*
%AMOCTAGOND33*
4,1,8,-0.07093,-0.02169,-0.07093,0.02169,-0.04924,0.04337,0.04924,0.04337,0.07093,0.02169,0.07093,-0.02169,0.04924,-0.04337,-0.04924,-0.04337,-0.07093,-0.02169,0.0*
%
%ADD33OCTAGOND33*%

%ADD34R,0.06509X0.04934*%
%ADD35R,0.05721X0.06902*%
%ADD36R,0.03950X0.03950*%
G04:AMPARAMS|DCode=37|XSize=55.24mil|YSize=51.31mil|CornerRadius=0mil|HoleSize=0mil|Usage=FLASHONLY|Rotation=180.000|XOffset=0mil|YOffset=0mil|HoleType=Round|Shape=Octagon|*
%AMOCTAGOND37*
4,1,8,-0.02762,0.01283,-0.02762,-0.01283,-0.01480,-0.02565,0.01480,-0.02565,0.02762,-0.01283,0.02762,0.01283,0.01480,0.02565,-0.01480,0.02565,-0.02762,0.01283,0.0*
%
%ADD37OCTAGOND37*%

%ADD38R,0.05131X0.06115*%
%ADD39C,0.13800*%
%ADD40R,0.07690X0.02375*%
%ADD41R,0.05800X0.05800*%
%ADD42C,0.13595*%
%ADD43C,0.07300*%
%ADD44R,0.06706X0.06706*%
%ADD45C,0.06706*%
%ADD46O,0.06800X0.10800*%
%ADD47R,0.06800X0.10800*%
%ADD48C,0.05800*%
D31*
X451913Y450500D02*
D03*
D32*
X451126Y444594D02*
D03*
Y456406D02*
D03*
D33*
X462543Y450500D02*
D03*
D34*
X369500Y426858D02*
D03*
Y434142D02*
D03*
X357500Y426858D02*
D03*
Y434142D02*
D03*
X357000Y459142D02*
D03*
Y451858D02*
D03*
X369500Y459142D02*
D03*
Y451858D02*
D03*
D35*
X413965Y438000D02*
D03*
X422035D02*
D03*
X413965Y456500D02*
D03*
X422035D02*
D03*
D36*
X323041Y440803D02*
D03*
Y447102D02*
D03*
X335000Y440803D02*
D03*
Y447102D02*
D03*
D37*
X323041Y439819D02*
D03*
Y448087D02*
D03*
X335000Y439819D02*
D03*
Y448087D02*
D03*
D38*
X442256Y458000D02*
D03*
X466256Y432000D02*
D03*
X436744Y458000D02*
D03*
X460744Y432000D02*
D03*
D39*
X485500Y485000D02*
D03*
Y402500D02*
D03*
X215500D02*
D03*
X215000Y485000D02*
D03*
D40*
X481000Y437382D02*
D03*
Y439941D02*
D03*
Y442500D02*
D03*
D41*
X493126Y458642D02*
D03*
Y426358D02*
D03*
X481000Y432953D02*
D03*
Y452047D02*
D03*
D42*
X243500Y467372D02*
D03*
Y420128D02*
D03*
D43*
X273500Y453750D02*
D03*
Y433750D02*
D03*
Y443750D02*
D03*
D44*
X286642Y432205D02*
D03*
D45*
Y457795D02*
D03*
X304358D02*
D03*
Y432205D02*
D03*
D46*
X320000Y412500D02*
D03*
X330000D02*
D03*
X340000D02*
D03*
X350000D02*
D03*
X360000D02*
D03*
X370000D02*
D03*
X380000D02*
D03*
X390000D02*
D03*
X400000D02*
D03*
X410000D02*
D03*
X420000D02*
D03*
X430000D02*
D03*
X440000D02*
D03*
X450000D02*
D03*
Y472500D02*
D03*
X440000D02*
D03*
X430000D02*
D03*
X420000D02*
D03*
X410000D02*
D03*
X400000D02*
D03*
X390000D02*
D03*
X380000D02*
D03*
X370000D02*
D03*
X360000D02*
D03*
X350000D02*
D03*
X340000D02*
D03*
X310000Y412500D02*
D03*
X330000Y472500D02*
D03*
X320000D02*
D03*
D47*
X310000D02*
D03*
D48*
X454500Y439500D02*
D03*
X468500Y440000D02*
D03*
M02*
